<svg xmlns="http://www.w3.org/2000/svg" xmlns:xlink="http://www.w3.org/1999/xlink" width="1920" zoomAndPan="magnify" viewBox="0 0 1440 404.99999" height="540" preserveAspectRatio="xMidYMid meet" version="1.0"><defs><g/><clipPath id="id1"><path d="M 105.171875 6.980469 L 1272.167969 6.980469 L 1272.167969 397.730469 L 105.171875 397.730469 Z M 105.171875 6.980469 " clip-rule="nonzero"/></clipPath></defs><path fill="#a6a6a6" d="M 1237.585938 214.570312 C 1237.585938 294.054688 1168.429688 358.566406 1094.664062 358.566406 L 249.25 358.566406 C 228.503906 358.566406 207.757812 353.957031 189.316406 345.894531 C 213.519531 371.238281 246.945312 386.210938 281.574219 386.210938 L 1129.242188 386.210938 C 1201.855469 386.210938 1261.789062 326.3125 1261.789062 253.738281 L 1261.789062 190.140625 C 1261.789062 156.734375 1249.113281 126.785156 1229.515625 103.746094 C 1235.28125 118.722656 1237.585938 134.847656 1237.585938 150.976562 L 1237.585938 214.570312 " fill-opacity="1" fill-rule="nonzero"/><path fill="#f18a00" d="M 249.25 347.046875 L 1092.359375 347.046875 C 1164.972656 347.046875 1224.90625 287.144531 1224.90625 214.570312 L 1224.90625 150.976562 C 1224.90625 78.402344 1164.972656 18.5 1092.359375 18.5 L 249.25 18.5 C 176.636719 18.5 116.703125 78.402344 116.703125 150.976562 L 116.703125 214.570312 C 116.703125 288.296875 176.636719 347.046875 249.25 347.046875 " fill-opacity="1" fill-rule="nonzero"/><g clip-path="url(#id1)"><path fill="#737373" d="M 1214.535156 74.945312 C 1189.175781 34.628906 1144.226562 6.980469 1092.359375 6.980469 L 249.25 6.980469 C 169.722656 6.980469 105.175781 71.492188 105.175781 150.976562 L 105.175781 214.570312 C 105.175781 261.800781 128.226562 303.273438 162.804688 329.765625 C 188.164062 370.085938 233.113281 397.730469 282.375 397.730469 L 1128.089844 397.730469 C 1207.617188 397.730469 1272.164062 333.222656 1272.164062 253.738281 L 1272.164062 190.140625 C 1272.164062 142.914062 1249.113281 101.441406 1214.535156 74.945312 M 116.703125 214.570312 L 116.703125 150.976562 C 116.703125 78.402344 176.636719 18.5 249.25 18.5 L 1092.359375 18.5 C 1164.972656 18.5 1224.90625 78.402344 1224.90625 150.976562 L 1224.90625 214.570312 C 1224.90625 287.144531 1164.972656 347.046875 1092.359375 347.046875 L 249.25 347.046875 C 176.636719 347.046875 116.703125 288.296875 116.703125 214.570312 M 1261.789062 253.738281 C 1261.789062 326.3125 1200.703125 386.210938 1128.089844 386.210938 L 282.375 386.210938 C 248.097656 386.210938 214.671875 371.238281 190.46875 345.894531 C 208.910156 353.957031 228.503906 358.566406 250.402344 358.566406 L 1093.511719 358.566406 C 1173.039062 358.566406 1237.585938 294.054688 1237.585938 214.570312 L 1237.585938 150.976562 C 1237.585938 134.847656 1234.128906 118.722656 1229.515625 103.746094 C 1249.113281 126.785156 1261.789062 156.734375 1261.789062 190.140625 L 1261.789062 253.738281 " fill-opacity="1" fill-rule="nonzero"/></g><g fill="#000000" fill-opacity="1"><g transform="translate(457.942952, 239.639163)"><g><path d="M 69.125 0 L 62.625 -25.859375 L 30.25 -25.859375 L 23.75 0 L 3.03125 0 L 32.96875 -105.578125 L 60.5 -105.578125 L 90.453125 0 Z M 50.8125 -67.609375 L 47.5 -85.90625 L 45.078125 -85.90625 L 41.75 -67.609375 L 35.546875 -43.25 L 57.328125 -43.25 Z M 50.8125 -67.609375 "/></g></g></g><g fill="#000000" fill-opacity="1"><g transform="translate(551.410666, 239.639163)"><g><path d="M 9.21875 -111.921875 L 30.40625 -111.921875 L 30.40625 -66.25 L 32.828125 -66.25 C 33.222656 -68.363281 34 -70.328125 35.15625 -72.140625 C 36.320312 -73.960938 37.710938 -75.550781 39.328125 -76.90625 C 40.941406 -78.269531 42.753906 -79.328125 44.765625 -80.078125 C 46.785156 -80.835938 48.851562 -81.21875 50.96875 -81.21875 C 60.144531 -81.21875 66.875 -77.738281 71.15625 -70.78125 C 75.445312 -63.820312 77.59375 -53.4375 77.59375 -39.625 C 77.59375 -25.8125 75.472656 -15.453125 71.234375 -8.546875 C 67.003906 -1.640625 60.25 1.8125 50.96875 1.8125 C 48.851562 1.8125 46.785156 1.429688 44.765625 0.671875 C 42.753906 -0.078125 40.941406 -1.128906 39.328125 -2.484375 C 37.710938 -3.847656 36.320312 -5.4375 35.15625 -7.25 C 34 -9.070312 33.222656 -11.039062 32.828125 -13.15625 L 30.40625 -13.15625 L 30.40625 0 L 9.21875 0 Z M 42.5 -15.421875 C 46.4375 -15.421875 49.585938 -16.65625 51.953125 -19.125 C 54.328125 -21.601562 55.515625 -25.109375 55.515625 -29.640625 L 55.515625 -49.765625 C 55.515625 -54.296875 54.328125 -57.796875 51.953125 -60.265625 C 49.585938 -62.742188 46.4375 -63.984375 42.5 -63.984375 C 38.664062 -63.984375 35.691406 -63.097656 33.578125 -61.328125 C 31.460938 -59.566406 30.40625 -56.921875 30.40625 -53.390625 L 30.40625 -26.015625 C 30.40625 -22.484375 31.460938 -19.832031 33.578125 -18.0625 C 35.691406 -16.300781 38.664062 -15.421875 42.5 -15.421875 Z M 42.5 -15.421875 "/></g></g></g><g fill="#000000" fill-opacity="1"><g transform="translate(634.593907, 239.639163)"><g><path d="M 38.421875 1.8125 C 27.328125 1.8125 18.929688 -1.5625 13.234375 -8.3125 C 7.535156 -15.070312 4.6875 -25.507812 4.6875 -39.625 C 4.6875 -53.738281 7.535156 -64.195312 13.234375 -71 C 18.929688 -77.8125 27.328125 -81.21875 38.421875 -81.21875 C 49.515625 -81.21875 57.90625 -77.8125 63.59375 -71 C 69.289062 -64.195312 72.140625 -53.738281 72.140625 -39.625 C 72.140625 -25.507812 69.289062 -15.070312 63.59375 -8.3125 C 57.90625 -1.5625 49.515625 1.8125 38.421875 1.8125 Z M 38.421875 -14.96875 C 46.179688 -14.96875 50.0625 -19.507812 50.0625 -28.59375 L 50.0625 -50.8125 C 50.0625 -59.894531 46.179688 -64.4375 38.421875 -64.4375 C 30.648438 -64.4375 26.765625 -59.894531 26.765625 -50.8125 L 26.765625 -28.59375 C 26.765625 -19.507812 30.648438 -14.96875 38.421875 -14.96875 Z M 38.421875 -14.96875 "/></g></g></g><g fill="#000000" fill-opacity="1"><g transform="translate(711.424969, 239.639163)"><g><path d="M 51.28125 -13.46875 L 48.859375 -13.46875 C 48.253906 -11.34375 47.421875 -9.375 46.359375 -7.5625 C 45.296875 -5.75 44.007812 -4.132812 42.5 -2.71875 C 40.988281 -1.3125 39.222656 -0.207031 37.203125 0.59375 C 35.191406 1.40625 32.820312 1.8125 30.09375 1.8125 C 23.039062 1.8125 17.644531 -0.578125 13.90625 -5.359375 C 10.175781 -10.148438 8.3125 -16.832031 8.3125 -25.40625 L 8.3125 -79.40625 L 29.5 -79.40625 L 29.5 -29.5 C 29.5 -20.113281 32.773438 -15.421875 39.328125 -15.421875 C 42.554688 -15.421875 45.351562 -16.40625 47.71875 -18.375 C 50.09375 -20.34375 51.28125 -23.09375 51.28125 -26.625 L 51.28125 -79.40625 L 72.453125 -79.40625 L 72.453125 0 L 51.28125 0 Z M 51.28125 -13.46875 "/></g></g></g><g fill="#000000" fill-opacity="1"><g transform="translate(793.095793, 239.639163)"><g><path d="M 33.734375 0 C 26.472656 0 21.203125 -1.613281 17.921875 -4.84375 C 14.640625 -8.070312 13 -13.210938 13 -20.265625 L 13 -62.921875 L 3.03125 -62.921875 L 3.03125 -79.40625 L 7.859375 -79.40625 C 10.679688 -79.40625 12.597656 -80.007812 13.609375 -81.21875 C 14.617188 -82.425781 15.125 -84.394531 15.125 -87.125 L 15.125 -100.890625 L 34.1875 -100.890625 L 34.1875 -79.40625 L 48.09375 -79.40625 L 48.09375 -62.921875 L 34.1875 -62.921875 L 34.1875 -16.484375 L 46.578125 -16.484375 L 46.578125 0 Z M 33.734375 0 "/></g></g></g></svg>