<svg xmlns="http://www.w3.org/2000/svg" xmlns:xlink="http://www.w3.org/1999/xlink" width="1920" zoomAndPan="magnify" viewBox="0 0 1440 404.99999" height="540" preserveAspectRatio="xMidYMid meet" version="1.0"><defs><g/><clipPath id="id1"><path d="M 0 25 L 1427.25 25 L 1427.25 405 L 0 405 Z M 0 25 " clip-rule="nonzero"/></clipPath></defs><g clip-path="url(#id1)"><path fill="#d0cadd" d="M 1425.117188 413.457031 C 1405.988281 392.023438 1386.609375 370.160156 1367.867188 349.015625 C 1330.078125 306.382812 1291.003906 262.296875 1251.996094 219.476562 C 1240.949219 207.351562 1228.980469 195.898438 1217.402344 184.824219 C 1201.472656 169.578125 1184.996094 153.816406 1170.832031 136.183594 C 1163.398438 126.925781 1156.074219 119.160156 1148.582031 112.613281 L 1148.582031 112.605469 C 1148.578125 112.605469 1148.574219 112.605469 1148.570312 112.605469 C 1141.554688 106.476562 1134.386719 101.417969 1126.839844 97.242188 C 1122.488281 94.835938 1118.113281 92.609375 1113.886719 90.457031 C 1101.28125 84.039062 1089.378906 77.976562 1078.820312 67.773438 L 1078.394531 67.359375 L 1077.800781 67.367188 C 1015.523438 67.988281 953.328125 56.914062 893.199219 46.21875 C 834.730469 35.816406 774.269531 25.0625 713.632812 25 C 713.441406 25 713.246094 25 713.050781 25 C 651.851562 25 590.527344 34.277344 531.222656 43.25 C 471.980469 52.214844 410.722656 61.480469 349.65625 61.480469 C 349.589844 61.480469 349.519531 61.480469 349.453125 61.480469 L 348.828125 61.480469 L 348.402344 61.929688 C 336.472656 74.492188 323.355469 84.675781 309.46875 95.457031 C 305.765625 98.332031 302.050781 101.21875 298.351562 104.15625 C 291.410156 109.667969 285.066406 115.496094 278.964844 121.546875 C 278.882812 121.550781 278.804688 121.554688 278.726562 121.5625 L 278.738281 121.773438 C 270.984375 129.476562 263.632812 137.550781 256.0625 145.898438 L 253.058594 149.207031 C 241.191406 162.261719 227.351562 173.605469 213.964844 184.574219 C 200.757812 195.394531 187.101562 206.582031 175.273438 219.453125 C 136.1875 262.003906 97.265625 306.046875 59.621094 348.636719 C 40.816406 369.917969 21.371094 391.921875 2.152344 413.457031 L 0 415.871094 L 1427.265625 415.871094 Z M 1368.886719 354.535156 C 1335.820312 354.523438 1302.238281 354.308594 1269.722656 354.097656 C 1267.3125 354.082031 1264.878906 354.066406 1262.464844 354.050781 C 1261.570312 352.855469 1260.683594 351.65625 1259.789062 350.460938 C 1249.089844 336.109375 1238.261719 321.589844 1227.390625 306.988281 L 1326.699219 306.988281 C 1339.808594 321.730469 1352.832031 336.421875 1365.699219 350.9375 C 1366.753906 352.128906 1367.828125 353.339844 1368.886719 354.535156 Z M 261.171875 224.304688 C 252.496094 235.847656 243.8125 247.453125 235.136719 259.078125 C 228.671875 259.164062 222.21875 259.261719 215.796875 259.355469 C 191.652344 259.710938 166.71875 260.074219 142.253906 260.097656 C 153.0625 248.097656 163.90625 236.144531 174.765625 224.304688 Z M 333.199219 144.859375 C 357.039062 144.507812 381.355469 145.179688 405.984375 147.535156 C 401.320312 154.164062 396.464844 160.726562 391.613281 167.15625 C 366.320312 165.371094 340.933594 165.214844 315.644531 165.90625 C 321.164062 159.695312 326.589844 153.335938 331.695312 146.78125 C 332.195312 146.136719 332.699219 145.5 333.199219 144.859375 Z M 397.957031 77.382812 C 417.976562 76.152344 437.960938 74.453125 457.832031 72.507812 C 454.550781 77.617188 451.210938 82.671875 447.832031 87.683594 C 427.613281 88.148438 407.242188 88.59375 386.835938 88.984375 C 390.730469 85.117188 394.425781 81.265625 397.957031 77.382812 Z M 382.617188 89.066406 C 362.105469 89.449219 341.582031 89.769531 321.167969 89.988281 C 325.492188 86.566406 329.796875 83.054688 334.03125 79.421875 L 334.03125 79.425781 C 353.917969 79.472656 373.863281 78.800781 393.78125 77.644531 C 390.238281 81.457031 386.53125 85.253906 382.617188 89.066406 Z M 1040.898438 90.0625 C 1020.523438 90.066406 1000.128906 89.839844 979.789062 89.46875 C 976.789062 85.882812 973.824219 82.058594 970.851562 77.945312 C 990.910156 80.085938 1011.0625 81.804688 1031.242188 82.765625 C 1034.289062 85.332031 1037.492188 87.753906 1040.898438 90.0625 Z M 1036.078125 82.96875 C 1045.921875 83.378906 1055.765625 83.621094 1065.609375 83.621094 C 1074.84375 83.621094 1084.074219 83.421875 1093.296875 82.996094 L 1093.277344 82.507812 C 1097.117188 84.894531 1101.054688 87.070312 1105.082031 89.179688 C 1085.515625 89.746094 1065.863281 90.015625 1046.1875 90.058594 C 1042.605469 87.804688 1039.25 85.457031 1036.078125 82.96875 Z M 1252.464844 224.304688 C 1263.257812 236.164062 1274.046875 248.113281 1284.816406 260.101562 L 1192.542969 260.101562 C 1183.6875 248.160156 1174.847656 236.214844 1166.0625 224.304688 Z M 934.214844 363.800781 C 929.429688 351.050781 924.53125 337.921875 920.320312 324.773438 C 920.1875 324.355469 920.050781 323.9375 919.914062 323.523438 C 952.578125 317.648438 985.839844 312.238281 1019.152344 309.296875 C 1026.625 325.226562 1033.695312 340.460938 1040.476562 355.21875 C 1004.960938 356.601562 969.335938 359.941406 934.214844 363.800781 Z M 824.976562 376.074219 C 822.1875 364.816406 819.382812 353.230469 817.5 341.574219 C 842.367188 337.796875 867.363281 333.183594 891.625 328.699219 C 900.046875 327.144531 908.523438 325.578125 917.039062 324.039062 C 917.210938 324.578125 917.390625 325.117188 917.5625 325.65625 C 921.71875 338.632812 926.53125 351.558594 931.246094 364.125 C 917.894531 365.605469 904.613281 367.148438 891.449219 368.683594 C 869.660156 371.21875 847.238281 373.828125 824.976562 376.074219 Z M 582.445312 373.992188 C 570.902344 372.738281 559.375 371.449219 547.851562 370.164062 C 530.664062 368.242188 513.328125 366.304688 495.886719 364.480469 C 500.644531 351.804688 505.507812 338.753906 509.703125 325.65625 C 509.871094 325.128906 510.046875 324.597656 510.21875 324.070312 C 518.683594 325.597656 527.121094 327.148438 535.507812 328.699219 C 553.832031 332.078125 572.78125 335.574219 591.445312 338.667969 C 597.597656 339.683594 603.703125 340.625 609.777344 341.496094 C 607.902344 353.148438 605.097656 364.738281 602.308594 375.992188 C 595.726562 375.371094 589.121094 374.714844 582.445312 373.992188 Z M 386.457031 355.730469 C 393.640625 340 400.78125 324.546875 407.902344 309.316406 C 441.34375 312.261719 474.605469 317.675781 507.339844 323.550781 C 507.210938 323.957031 507.074219 324.367188 506.945312 324.773438 C 502.695312 338.050781 497.738281 351.308594 492.910156 364.175781 C 457.726562 360.523438 422.132812 357.367188 386.457031 355.730469 Z M 991.398438 106.136719 C 994.332031 109.042969 997.203125 111.902344 1000.011719 114.792969 C 977.578125 118.386719 956.625 122.808594 939.300781 126.671875 C 936.992188 127.1875 934.671875 127.71875 932.355469 128.246094 C 929.519531 122.40625 926.757812 116.578125 924.089844 110.789062 C 947.042969 108.40625 969.007812 106.46875 990.203125 104.957031 Z M 1018.125 136.839844 C 1022.878906 144.175781 1027.523438 151.417969 1032.074219 158.582031 C 1011.511719 160.71875 989.253906 164.53125 964.191406 170.175781 C 961.167969 170.855469 958.144531 171.554688 955.121094 172.269531 C 954.78125 171.628906 954.4375 170.988281 954.101562 170.347656 C 950.8125 164.164062 947.527344 157.976562 944.261719 151.773438 C 946.777344 151.101562 949.292969 150.414062 951.804688 149.765625 C 976.542969 143.367188 997.859375 138.882812 1017.550781 135.992188 C 1017.738281 136.28125 1017.9375 136.550781 1018.125 136.839844 Z M 817.035156 338.714844 C 815.097656 326.742188 813.046875 314.644531 811.058594 302.910156 C 811.046875 302.855469 811.039062 302.800781 811.03125 302.746094 C 838.121094 298.335938 865.289062 292.769531 891.652344 287.355469 C 895.761719 286.511719 899.890625 285.664062 904.03125 284.816406 C 908.0625 296.773438 912.1875 309.046875 916.136719 321.261719 C 907.746094 322.777344 899.394531 324.320312 891.097656 325.851562 C 866.847656 330.335938 841.867188 334.945312 817.035156 338.714844 Z M 591.917969 335.808594 C 573.28125 332.722656 554.34375 329.230469 536.03125 325.851562 C 527.769531 324.328125 519.460938 322.796875 511.117188 321.289062 C 515.066406 309.078125 519.171875 296.8125 523.210938 284.808594 C 527.207031 285.625 531.195312 286.445312 535.167969 287.261719 C 555.5 291.445312 576.519531 295.769531 597.261719 299.5 C 603.636719 300.644531 609.964844 301.691406 616.25 302.664062 C 616.230469 302.789062 616.207031 302.917969 616.1875 303.042969 C 614.210938 314.699219 612.171875 326.722656 610.246094 338.621094 C 604.171875 337.746094 598.070312 336.828125 591.917969 335.808594 Z M 485.882812 161.007812 C 502.542969 164.714844 519.109375 168.710938 535.34375 172.632812 C 543.296875 174.554688 551.328125 176.492188 559.410156 178.40625 C 559.398438 178.433594 559.390625 178.464844 559.378906 178.492188 C 557.214844 184.710938 554.800781 190.902344 552.328125 197.019531 C 546.894531 195.75 541.480469 194.476562 536.109375 193.214844 C 516.160156 188.511719 495.777344 183.714844 475.257812 179.453125 C 478.828125 173.574219 482.347656 167.601562 485.609375 161.527344 C 485.699219 161.355469 485.789062 161.179688 485.882812 161.007812 Z M 562.242188 179.074219 C 582.035156 183.742188 602.121094 188.238281 622.15625 191.925781 C 626.742188 192.769531 631.277344 193.53125 635.792969 194.25 C 635.695312 194.835938 635.613281 195.421875 635.515625 196.003906 C 634.527344 201.847656 633.425781 207.722656 632.292969 213.5625 C 627.027344 212.71875 621.734375 211.824219 616.382812 210.820312 C 595.9375 206.996094 575.378906 202.386719 555.183594 197.6875 C 557.613281 191.667969 559.980469 185.578125 562.117188 179.445312 C 562.160156 179.324219 562.199219 179.199219 562.242188 179.074219 Z M 865.148438 174.660156 C 867.367188 181.128906 869.734375 187.601562 872.125 194.011719 C 846.800781 200.804688 820.953125 207.402344 794.992188 212.390625 C 793.863281 206.4375 792.761719 200.445312 791.75 194.492188 C 791.652344 193.914062 791.570312 193.328125 791.472656 192.75 C 816.273438 187.8125 840.886719 181.257812 865.050781 174.371094 C 865.085938 174.46875 865.113281 174.566406 865.148438 174.660156 Z M 634.59375 216.878906 C 661.464844 221.058594 687.234375 223.164062 712.183594 223.214844 L 712.183594 243.097656 C 685.84375 242.945312 658.785156 240.691406 630.71875 236.335938 C 631.242188 233.703125 631.769531 231.074219 632.289062 228.476562 C 633.058594 224.652344 633.828125 220.773438 634.59375 216.878906 Z M 638.65625 194.6875 C 664.164062 198.625 688.597656 200.628906 712.183594 200.640625 L 712.183594 220.300781 C 687.421875 220.25 661.832031 218.15625 635.15625 214.015625 C 636.289062 208.1875 637.386719 202.324219 638.375 196.484375 C 638.472656 195.890625 638.554688 195.285156 638.65625 194.6875 Z M 788.894531 194.976562 C 789.90625 200.953125 791.015625 206.964844 792.144531 212.933594 C 790.210938 213.296875 788.277344 213.652344 786.34375 213.996094 C 763.203125 218.105469 739.539062 220.214844 715.082031 220.320312 L 715.082031 200.613281 C 738.679688 200.457031 761.460938 198.351562 783.671875 194.25 C 785.324219 193.945312 786.976562 193.625 788.628906 193.304688 C 788.722656 193.859375 788.796875 194.421875 788.894531 194.976562 Z M 639.105469 191.832031 C 640.535156 182.863281 641.746094 173.832031 642.785156 164.773438 C 667.179688 167.855469 690.132812 169.425781 712.183594 169.433594 L 712.183594 197.71875 C 688.742188 197.710938 664.46875 195.746094 639.105469 191.832031 Z M 712.183594 246.003906 L 712.183594 272.722656 C 683.949219 272.539062 655.121094 270.121094 625.386719 265.464844 C 625.429688 265.203125 625.472656 264.9375 625.515625 264.675781 C 626.875 256.179688 628.496094 247.632812 630.15625 239.199219 C 658.417969 243.589844 685.65625 245.855469 712.183594 246.003906 Z M 715.082031 246.023438 C 740.582031 246.019531 765.4375 244.050781 789.914062 240.125 C 792.328125 239.738281 794.738281 239.308594 797.148438 238.898438 C 798.78125 247.4375 800.375 256.085938 801.75 264.675781 C 801.796875 264.96875 801.847656 265.261719 801.894531 265.550781 C 799.796875 265.898438 797.695312 266.257812 795.597656 266.585938 C 769.097656 270.726562 742.359375 272.785156 715.082031 272.753906 Z M 789.457031 237.269531 C 765.128906 241.167969 740.429688 243.121094 715.082031 243.125 L 715.082031 223.203125 C 739.703125 223.09375 763.546875 220.984375 786.847656 216.847656 C 788.796875 216.5 790.742188 216.140625 792.6875 215.777344 C 793.414062 219.5625 794.140625 223.335938 794.863281 227.050781 C 795.441406 230.03125 796.027344 233.035156 796.609375 236.050781 C 794.222656 236.460938 791.839844 236.886719 789.457031 237.269531 Z M 797.707031 226.5 C 796.988281 222.785156 796.257812 219.015625 795.535156 215.234375 C 821.679688 210.210938 847.679688 203.566406 873.144531 196.734375 C 874.425781 200.152344 875.707031 203.550781 876.980469 206.90625 C 878.359375 210.550781 879.75 214.230469 881.136719 217.933594 C 854.359375 224.367188 826.9375 230.75 799.464844 235.566406 C 798.878906 232.523438 798.292969 229.5 797.707031 226.5 Z M 791.023438 189.886719 C 789.601562 181.007812 788.390625 172.0625 787.351562 163.082031 C 810.828125 159.179688 834.269531 154.171875 857.386719 148.84375 C 859.414062 156.511719 861.644531 164.117188 864.132812 171.621094 C 840.105469 178.46875 815.640625 184.980469 791.023438 189.886719 Z M 788.179688 190.441406 C 786.5 190.769531 784.824219 191.09375 783.144531 191.40625 C 761.109375 195.472656 738.503906 197.574219 715.082031 197.726562 L 715.082031 169.410156 C 737.675781 169.277344 759.382812 167.542969 780.816406 164.175781 C 782.039062 163.980469 783.265625 163.761719 784.492188 163.5625 C 785.535156 172.5625 786.75 181.535156 788.179688 190.441406 Z M 712.183594 166.515625 C 690.238281 166.507812 667.410156 164.972656 643.117188 161.902344 C 644.433594 150.027344 645.484375 138.121094 646.40625 126.28125 C 668.34375 127.589844 690.328125 128.425781 712.183594 128.425781 Z M 640.246094 161.53125 C 635.34375 160.890625 630.40625 160.210938 625.382812 159.445312 C 607.191406 156.675781 588.902344 153.40625 570.785156 149.980469 C 573.191406 140.355469 575.269531 130.636719 577.171875 120.929688 C 599.117188 122.894531 621.289062 124.738281 643.511719 126.105469 C 642.597656 137.886719 641.550781 149.726562 640.246094 161.53125 Z M 624.945312 162.308594 C 630.003906 163.078125 634.976562 163.761719 639.910156 164.40625 C 638.875 173.445312 637.667969 182.449219 636.242188 191.390625 C 631.75 190.671875 627.242188 189.917969 622.679688 189.078125 C 602.792969 185.417969 582.84375 180.957031 563.171875 176.320312 C 565.761719 168.582031 568.046875 160.726562 570.082031 152.796875 C 588.277344 156.234375 606.660156 159.523438 624.945312 162.308594 Z M 615.847656 213.667969 C 621.1875 214.667969 626.480469 215.578125 631.734375 216.421875 C 630.976562 220.277344 630.210938 224.121094 629.449219 227.90625 C 628.917969 230.546875 628.386719 233.214844 627.855469 235.894531 C 623.023438 235.121094 618.171875 234.308594 613.28125 233.414062 C 590.875 229.308594 568.300781 224.320312 546.257812 219.34375 C 547.429688 216.488281 548.609375 213.652344 549.777344 210.84375 C 551.207031 207.402344 552.648438 203.914062 554.082031 200.402344 C 574.453125 205.148438 595.199219 209.800781 615.847656 213.667969 Z M 612.757812 236.257812 C 617.632812 237.152344 622.476562 237.980469 627.292969 238.75 C 625.632812 247.171875 624.019531 255.714844 622.65625 264.21875 C 622.613281 264.484375 622.566406 264.753906 622.523438 265.019531 C 617.414062 264.195312 612.289062 263.332031 607.125 262.378906 C 583.402344 257.996094 559.410156 252.703125 536.207031 247.582031 C 536.03125 247.542969 535.859375 247.503906 535.683594 247.46875 C 535.761719 247.238281 535.835938 247.003906 535.914062 246.777344 C 538.640625 238.4375 541.847656 230.175781 545.148438 222.0625 C 567.371094 227.082031 590.140625 232.117188 612.757812 236.257812 Z M 535.582031 250.40625 C 558.808594 255.53125 582.828125 260.832031 606.597656 265.226562 C 611.78125 266.183594 616.929688 267.066406 622.058594 267.894531 C 620.328125 278.554688 618.519531 289.289062 616.738281 299.789062 C 610.457031 298.820312 604.144531 297.796875 597.777344 296.648438 C 577.070312 292.925781 556.066406 288.605469 535.753906 284.425781 C 531.894531 283.632812 528.019531 282.835938 524.144531 282.042969 C 524.300781 281.574219 524.460938 281.097656 524.617188 280.632812 C 527.972656 270.671875 531.421875 260.414062 534.773438 250.230469 C 535.042969 250.289062 535.3125 250.347656 535.582031 250.40625 Z M 624.917969 268.34375 C 654.8125 273.023438 683.789062 275.453125 712.183594 275.632812 L 712.183594 307.695312 C 682.167969 307.488281 651.417969 304.996094 619.601562 300.222656 C 621.382812 289.730469 623.191406 279.003906 624.917969 268.34375 Z M 715.082031 275.652344 C 715.265625 275.652344 715.453125 275.652344 715.640625 275.652344 C 742.867188 275.652344 769.582031 273.582031 796.046875 269.445312 C 798.148438 269.117188 800.253906 268.753906 802.359375 268.410156 C 804.089844 279.089844 805.902344 289.839844 807.683594 300.347656 C 805.730469 300.660156 803.773438 300.984375 801.824219 301.285156 C 773.390625 305.636719 744.585938 307.789062 715.082031 307.730469 Z M 805.21875 267.941406 C 834.425781 263.035156 863.644531 256.621094 891.992188 250.378906 C 892.160156 250.34375 892.332031 250.304688 892.5 250.269531 C 895.980469 260.914062 899.582031 271.625 903.097656 282.054688 C 899.078125 282.875 895.0625 283.699219 891.066406 284.519531 C 864.730469 289.929688 837.585938 295.488281 810.546875 299.894531 C 808.761719 289.378906 806.949219 278.621094 805.21875 267.941406 Z M 891.371094 247.550781 C 863.0625 253.785156 833.886719 260.191406 804.753906 265.082031 C 804.707031 264.792969 804.660156 264.503906 804.613281 264.214844 C 803.230469 255.609375 801.636719 246.957031 800.003906 238.410156 C 827.660156 233.5625 855.230469 227.136719 882.152344 220.667969 C 885.359375 229.285156 888.515625 238.015625 891.351562 246.761719 C 891.429688 247.007812 891.515625 247.257812 891.59375 247.503906 C 891.519531 247.519531 891.445312 247.535156 891.371094 247.550781 Z M 894.109375 245.871094 C 891.289062 237.183594 888.167969 228.527344 884.988281 219.984375 C 887.402344 219.402344 889.820312 218.824219 892.222656 218.242188 C 916.707031 212.339844 941.929688 206.261719 967.125 201.289062 C 971.859375 210.445312 976.527344 219.679688 980.972656 228.933594 C 981.058594 229.113281 981.144531 229.292969 981.230469 229.472656 C 952.007812 234.269531 922.828125 240.628906 894.4375 246.878906 C 894.328125 246.542969 894.214844 246.203125 894.109375 245.871094 Z M 891.542969 215.429688 C 889.03125 216.035156 886.5 216.644531 883.972656 217.25 C 882.542969 213.433594 881.113281 209.636719 879.6875 205.882812 C 878.449219 202.613281 877.203125 199.304688 875.953125 195.980469 C 881.28125 194.546875 886.589844 193.105469 891.867188 191.671875 C 912.0625 186.191406 932.84375 180.554688 953.613281 175.605469 C 957.644531 183.191406 961.707031 190.867188 965.734375 198.613281 C 940.757812 203.5625 915.792969 209.582031 891.542969 215.429688 Z M 891.105469 188.878906 C 885.746094 190.335938 880.351562 191.796875 874.933594 193.253906 C 872.519531 186.78125 870.128906 180.246094 867.890625 173.722656 C 867.871094 173.671875 867.855469 173.621094 867.839844 173.574219 C 876.011719 171.230469 884.136719 168.859375 892.195312 166.507812 C 908.304688 161.800781 924.859375 156.988281 941.390625 152.539062 C 944.757812 158.941406 948.148438 165.324219 951.542969 171.707031 C 951.765625 172.125 951.988281 172.546875 952.210938 172.96875 C 931.644531 177.882812 911.089844 183.453125 891.105469 188.878906 Z M 891.382812 163.730469 C 883.289062 166.09375 875.132812 168.472656 866.921875 170.824219 C 864.445312 163.375 862.226562 155.816406 860.210938 148.191406 C 870.835938 145.730469 881.394531 143.21875 891.84375 140.722656 C 904.597656 137.679688 917.699219 134.558594 930.753906 131.578125 C 933.742188 137.691406 936.835938 143.808594 940.015625 149.90625 C 923.664062 154.320312 907.304688 159.078125 891.382812 163.730469 Z M 891.171875 137.90625 C 880.703125 140.40625 870.125 142.921875 859.480469 145.390625 C 857.199219 136.539062 855.160156 127.621094 853.269531 118.699219 C 862.1875 117.707031 871.078125 116.695312 879.910156 115.683594 C 887.933594 114.769531 895.945312 113.851562 903.957031 112.957031 C 909.714844 112.3125 915.410156 111.695312 921.046875 111.105469 C 923.761719 117.003906 926.566406 122.945312 929.457031 128.902344 C 916.609375 131.84375 903.722656 134.910156 891.171875 137.90625 Z M 856.65625 146.039062 C 833.65625 151.339844 810.34375 156.320312 787.015625 160.207031 C 785.714844 148.621094 784.671875 137.003906 783.75 125.441406 C 806.070312 123.734375 828.335938 121.460938 850.375 119.023438 C 852.289062 128.046875 854.347656 137.078125 856.65625 146.039062 Z M 784.152344 160.683594 C 782.890625 160.886719 781.628906 161.117188 780.367188 161.316406 C 759.082031 164.660156 737.527344 166.390625 715.082031 166.519531 L 715.082031 128.414062 C 736.953125 128.335938 758.933594 127.28125 780.859375 125.65625 C 781.789062 137.304688 782.84375 149.007812 784.152344 160.683594 Z M 712.183594 125.53125 C 690.414062 125.53125 668.503906 124.695312 646.632812 123.394531 C 647.265625 115.09375 647.84375 106.832031 648.414062 98.640625 C 648.695312 94.625 648.980469 90.578125 649.269531 86.519531 C 670.285156 86.292969 691.28125 86.164062 712.183594 86.1875 Z M 645.527344 98.4375 C 644.953125 106.636719 644.375 114.910156 643.742188 123.21875 C 621.632812 121.859375 599.570312 120.027344 577.726562 118.070312 C 579.378906 109.515625 580.90625 100.972656 582.421875 92.515625 C 582.714844 90.859375 583.015625 89.195312 583.3125 87.53125 C 604.292969 87.128906 625.328125 86.792969 646.363281 86.554688 C 646.078125 90.53125 645.800781 94.5 645.527344 98.4375 Z M 579.566406 92.003906 C 578.042969 100.546875 576.496094 109.171875 574.828125 117.8125 C 566.703125 117.078125 558.605469 116.335938 550.554688 115.59375 C 541.5625 114.761719 532.578125 113.933594 523.601562 113.128906 C 518.480469 112.671875 513.265625 112.214844 508.007812 111.761719 C 510.976562 104.148438 513.820312 96.527344 516.617188 88.960938 C 537.734375 88.46875 559.011719 88 580.359375 87.585938 C 580.09375 89.0625 579.832031 90.539062 579.566406 92.003906 Z M 523.34375 116.011719 C 532.316406 116.816406 541.300781 117.644531 550.289062 118.476562 C 558.246094 119.207031 566.246094 119.945312 574.273438 120.667969 C 572.382812 130.289062 570.316406 139.914062 567.933594 149.441406 C 557.179688 147.398438 546.492188 145.308594 535.9375 143.242188 C 523.46875 140.804688 510.777344 138.324219 498.019531 135.925781 C 501.140625 128.859375 504.078125 121.722656 506.902344 114.574219 C 512.449219 115.046875 517.949219 115.527344 523.34375 116.011719 Z M 535.378906 146.085938 C 545.886719 148.140625 556.523438 150.21875 567.226562 152.253906 C 565.195312 160.148438 562.921875 167.964844 560.339844 175.652344 C 552.175781 173.71875 544.058594 171.761719 536.023438 169.820312 C 520.023438 165.953125 503.699219 162.019531 487.277344 158.355469 C 490.65625 151.878906 493.816406 145.296875 496.808594 138.644531 C 509.78125 141.078125 522.699219 143.601562 535.378906 146.085938 Z M 535.445312 196.03125 C 540.671875 197.261719 545.9375 198.5 551.226562 199.734375 C 549.851562 203.09375 548.472656 206.433594 547.101562 209.730469 C 545.871094 212.695312 544.625 215.683594 543.390625 218.695312 C 540.941406 218.140625 538.492188 217.585938 536.058594 217.035156 C 511.746094 211.527344 486.886719 205.898438 461.832031 201.222656 C 463.882812 197.871094 465.941406 194.550781 467.984375 191.261719 C 469.867188 188.238281 471.761719 185.171875 473.65625 182.082031 C 494.484375 186.390625 515.1875 191.257812 535.445312 196.03125 Z M 535.417969 219.859375 C 537.699219 220.375 539.992188 220.894531 542.285156 221.414062 C 539.027344 229.4375 535.867188 237.605469 533.160156 245.875 C 533.054688 246.195312 532.945312 246.519531 532.839844 246.839844 C 504.414062 240.570312 475.367188 234.222656 446.058594 229.4375 C 446.136719 229.28125 446.210938 229.121094 446.289062 228.964844 C 450.484375 220.375 455.289062 212.023438 460.226562 203.867188 C 485.597656 208.574219 510.789062 214.277344 535.417969 219.859375 Z M 531.929688 249.601562 C 528.609375 259.683594 525.195312 269.84375 521.871094 279.707031 C 521.675781 280.285156 521.476562 280.878906 521.28125 281.457031 C 490.917969 275.257812 459.980469 269.226562 428.789062 265.160156 C 434.097656 254.070312 439.410156 243.078125 444.734375 232.15625 C 474.164062 236.933594 503.359375 243.300781 531.929688 249.601562 Z M 520.351562 284.222656 C 516.304688 296.25 512.191406 308.535156 508.242188 320.773438 C 475.65625 314.917969 442.535156 309.519531 409.203125 306.53125 C 415.304688 293.507812 421.386719 280.648438 427.476562 267.910156 C 458.773438 271.953125 489.851562 277.996094 520.351562 284.222656 Z M 619.042969 303.527344 C 619.066406 303.386719 619.089844 303.242188 619.113281 303.101562 C 651.097656 307.90625 682.003906 310.398438 712.183594 310.605469 L 712.183594 346.484375 C 680.066406 346.285156 647.160156 343.796875 613.117188 339.023438 C 615.039062 327.152344 617.070312 315.160156 619.042969 303.527344 Z M 715.082031 310.621094 C 715.464844 310.621094 715.851562 310.628906 716.234375 310.628906 C 745.480469 310.628906 774.054688 308.464844 802.261719 304.144531 C 804.230469 303.84375 806.199219 303.519531 808.167969 303.203125 C 808.179688 303.265625 808.191406 303.332031 808.203125 303.394531 C 810.1875 315.109375 812.234375 327.191406 814.167969 339.140625 C 812.023438 339.460938 809.878906 339.785156 807.738281 340.09375 C 777.359375 344.433594 746.589844 346.570312 715.082031 346.511719 Z M 906.890625 284.234375 C 937.332031 278.03125 968.457031 271.988281 999.625 267.949219 C 1005.972656 281.296875 1012.027344 294.113281 1017.84375 306.503906 C 984.640625 309.484375 951.523438 314.890625 919.015625 320.742188 C 915.058594 308.507812 910.929688 296.210938 906.890625 284.234375 Z M 905.957031 281.46875 C 902.4375 271.03125 898.828125 260.304688 895.34375 249.644531 C 923.878906 243.363281 953.207031 236.980469 982.539062 232.195312 C 987.996094 243.570312 993.25 254.554688 998.316406 265.199219 C 967.246094 269.265625 936.261719 275.292969 905.957031 281.46875 Z M 985.527344 231.726562 C 988.082031 231.316406 990.640625 230.898438 993.199219 230.515625 C 1019.832031 226.546875 1046.8125 225.117188 1072.621094 224.601562 L 1093.640625 259.929688 C 1066.621094 259.945312 1039.179688 260.527344 1012.171875 263.515625 C 1008.5625 263.914062 1004.949219 264.355469 1001.339844 264.8125 C 996.261719 254.140625 991 243.128906 985.527344 231.726562 Z M 992.769531 227.65625 C 989.921875 228.078125 987.070312 228.542969 984.21875 229 C 984.007812 228.558594 983.796875 228.125 983.585938 227.679688 C 979.246094 218.652344 974.703125 209.648438 970.089844 200.722656 C 972.53125 200.25 974.976562 199.769531 977.417969 199.320312 C 1002.117188 194.765625 1027.117188 192.152344 1052.21875 190.816406 C 1058.46875 200.984375 1064.578125 211.078125 1070.582031 221.171875 L 1070.917969 221.734375 C 1045.515625 222.285156 1018.992188 223.746094 992.769531 227.65625 Z M 976.890625 196.472656 C 974.164062 196.976562 971.433594 197.507812 968.703125 198.039062 C 964.660156 190.253906 960.574219 182.539062 956.527344 174.914062 C 959.292969 174.265625 962.0625 173.621094 964.828125 173 C 990.359375 167.25 1012.960938 163.417969 1033.804688 161.324219 C 1039.5 170.3125 1045.050781 179.195312 1050.488281 188.011719 C 1025.804688 189.378906 1001.214844 191.984375 976.890625 196.472656 Z M 951.078125 146.960938 C 948.351562 147.667969 945.617188 148.414062 942.882812 149.144531 C 939.714844 143.082031 936.640625 136.996094 933.65625 130.917969 C 935.75 130.445312 937.847656 129.960938 939.933594 129.496094 C 957.722656 125.53125 979.34375 120.972656 1002.453125 117.335938 C 1007.1875 122.34375 1011.660156 127.546875 1015.742188 133.339844 C 996.332031 136.25 975.34375 140.6875 951.078125 146.960938 Z M 922.816406 108.007812 C 920.164062 102.214844 917.589844 96.460938 915.101562 90.785156 C 936.097656 91.390625 957.226562 91.945312 978.421875 92.339844 C 981.386719 95.832031 984.394531 99.113281 987.492188 102.246094 C 966.742188 103.753906 945.246094 105.675781 922.816406 108.007812 Z M 919.777344 108.324219 C 914.449219 108.886719 909.070312 109.46875 903.632812 110.078125 C 895.621094 110.976562 887.605469 111.890625 879.582031 112.808594 C 870.65625 113.828125 861.679688 114.851562 852.664062 115.855469 C 850.765625 106.773438 849 97.703125 847.253906 88.730469 C 856.566406 89.011719 865.855469 89.292969 875.078125 89.578125 C 887.289062 89.953125 899.574219 90.328125 911.902344 90.691406 C 914.4375 96.5 917.066406 102.386719 919.777344 108.324219 Z M 844.40625 89.265625 C 846.136719 98.167969 847.890625 107.164062 849.773438 116.175781 C 827.847656 118.601562 805.707031 120.859375 783.515625 122.554688 C 782.851562 114.050781 782.242188 105.585938 781.644531 97.195312 C 781.402344 93.8125 781.15625 90.410156 780.910156 87 C 802.121094 87.441406 823.292969 88.019531 844.28125 88.644531 C 844.324219 88.847656 844.363281 89.058594 844.40625 89.265625 Z M 778.753906 97.398438 C 779.351562 105.792969 779.960938 114.265625 780.625 122.769531 C 758.765625 124.390625 736.867188 125.441406 715.082031 125.519531 L 715.082031 86.191406 C 735.96875 86.230469 756.992188 86.515625 778 86.9375 C 778.253906 90.4375 778.503906 93.929688 778.753906 97.398438 Z M 715.082031 83.296875 L 715.082031 51.433594 C 735.140625 51.53125 755.277344 52.5625 775.386719 54.183594 C 776.289062 64.15625 777.0625 74.140625 777.789062 84.039062 C 756.851562 83.617188 735.898438 83.335938 715.082031 83.296875 Z M 712.183594 83.292969 C 691.351562 83.269531 670.425781 83.398438 649.476562 83.621094 C 650.203125 73.570312 650.984375 63.433594 651.90625 53.3125 C 671.746094 52.125 691.605469 51.414062 711.398438 51.414062 C 711.660156 51.414062 711.921875 51.414062 712.183594 51.414062 Z M 646.570312 83.65625 C 625.644531 83.890625 604.710938 84.226562 583.835938 84.625 C 585.398438 75.945312 587.019531 67.175781 588.796875 58.445312 C 608.773438 56.476562 628.863281 54.75 648.976562 53.5 C 648.066406 63.574219 647.292969 73.660156 646.570312 83.65625 Z M 580.882812 84.679688 C 559.71875 85.089844 538.632812 85.550781 517.695312 86.039062 C 518.15625 84.789062 518.617188 83.542969 519.074219 82.296875 C 521.140625 76.679688 523.246094 70.972656 525.394531 65.253906 C 545.339844 63.015625 565.5 60.765625 585.78125 58.742188 C 584.03125 67.398438 582.425781 76.085938 580.882812 84.679688 Z M 516.355469 81.296875 C 515.765625 82.898438 515.175781 84.503906 514.582031 86.109375 C 504.71875 86.339844 494.886719 86.574219 485.101562 86.804688 C 473.929688 87.070312 462.671875 87.335938 451.371094 87.601562 C 454.796875 82.5 458.1875 77.355469 461.507812 72.148438 C 481.882812 70.121094 502.132812 67.863281 522.167969 65.613281 C 520.199219 70.878906 518.257812 76.128906 516.355469 81.296875 Z M 485.167969 89.699219 C 494.574219 89.476562 504.023438 89.253906 513.5 89.03125 C 510.742188 96.496094 507.929688 104.007812 504.996094 111.503906 C 483.714844 109.6875 461.386719 107.972656 438.34375 106.589844 C 442.046875 101.289062 445.742188 95.945312 449.402344 90.542969 C 461.386719 90.265625 473.328125 89.980469 485.167969 89.699219 Z M 503.886719 114.316406 C 501.09375 121.375 498.183594 128.414062 495.09375 135.382812 C 484.8125 133.460938 474.496094 131.605469 464.230469 129.882812 C 451.433594 127.734375 438.628906 125.953125 425.734375 124.484375 C 425.824219 124.359375 425.917969 124.226562 426.007812 124.101562 C 429.453125 119.234375 432.921875 114.320312 436.390625 109.375 C 459.722656 110.757812 482.335938 112.484375 503.886719 114.316406 Z M 463.75 132.738281 C 473.769531 134.417969 483.835938 136.226562 493.875 138.097656 C 490.886719 144.71875 487.726562 151.265625 484.347656 157.695312 C 473.753906 155.355469 463.121094 153.136719 452.507812 151.140625 C 438.660156 148.535156 424.882812 146.582031 411.203125 145.148438 C 415.402344 139.117188 419.652344 133.085938 423.828125 127.183594 C 437.207031 128.675781 450.484375 130.511719 463.75 132.738281 Z M 451.972656 153.984375 C 462.292969 155.929688 472.636719 158.082031 482.945312 160.351562 C 479.582031 166.609375 475.9375 172.773438 472.238281 178.84375 C 461.304688 176.601562 450.335938 174.507812 439.371094 172.6875 C 424.660156 170.242188 409.871094 168.539062 395.046875 167.402344 C 399.867188 160.996094 404.691406 154.472656 409.300781 147.863281 C 423.433594 149.300781 437.667969 151.292969 451.972656 153.984375 Z M 438.894531 175.542969 C 449.480469 177.300781 460.070312 179.316406 470.636719 181.472656 C 468.929688 184.25 467.222656 187.007812 465.523438 189.734375 C 463.289062 193.335938 461.03125 196.976562 458.789062 200.652344 C 446.984375 198.488281 435.144531 196.546875 423.296875 194.941406 C 408.167969 192.886719 392.894531 191.515625 377.554688 190.632812 C 381.269531 185.613281 385.019531 180.660156 388.726562 175.765625 C 390.136719 173.910156 391.554688 172.035156 392.976562 170.152344 C 408.339844 171.28125 423.664062 173.011719 438.894531 175.542969 Z M 422.90625 197.808594 C 434.339844 199.359375 445.773438 201.230469 457.175781 203.304688 C 452.402344 211.226562 447.769531 219.335938 443.6875 227.691406 C 443.480469 228.117188 443.273438 228.539062 443.066406 228.964844 C 430.085938 226.890625 417.054688 225.128906 404.007812 223.832031 C 388.292969 222.269531 372.398438 221.613281 356.570312 221.363281 C 356.605469 221.304688 356.640625 221.242188 356.675781 221.183594 C 362.476562 211.640625 368.90625 202.417969 375.496094 193.425781 C 391.40625 194.296875 407.238281 195.683594 422.90625 197.808594 Z M 403.722656 226.710938 C 416.414062 227.972656 429.097656 229.683594 441.742188 231.683594 C 436.40625 242.632812 431.085938 253.65625 425.765625 264.773438 C 412.0625 263.042969 398.3125 261.691406 384.546875 260.902344 C 367.753906 259.941406 350.832031 259.347656 333.871094 259.003906 C 340.839844 247.375 347.828125 235.769531 354.828125 224.238281 C 371.152344 224.46875 387.542969 225.105469 403.722656 226.710938 Z M 384.378906 263.792969 C 397.757812 264.5625 411.121094 265.859375 424.449219 267.523438 C 418.347656 280.296875 412.25 293.1875 406.136719 306.253906 C 391.828125 305.035156 377.480469 304.269531 363.125 304.121094 C 344.554688 303.929688 325.882812 303.824219 307.203125 303.765625 C 315.46875 289.824219 323.796875 275.832031 332.160156 261.863281 C 349.640625 262.199219 367.082031 262.800781 384.378906 263.792969 Z M 363.097656 307.015625 C 377.019531 307.160156 390.9375 307.894531 404.828125 309.054688 C 397.691406 324.328125 390.535156 339.824219 383.335938 355.597656 C 367.941406 354.929688 352.535156 354.535156 337.140625 354.535156 L 277.179688 354.535156 C 277.976562 353.183594 278.789062 351.8125 279.585938 350.464844 C 288.128906 335.996094 296.777344 321.359375 305.492188 306.65625 C 324.730469 306.710938 343.96875 306.816406 363.097656 307.015625 Z M 612.648438 341.902344 C 646.851562 346.703125 679.910156 349.195312 712.183594 349.394531 L 712.183594 381.625 C 677.710938 381.464844 642.183594 379.675781 605.226562 376.261719 C 607.996094 365.066406 610.777344 353.542969 612.648438 341.902344 Z M 715.082031 349.410156 C 715.503906 349.410156 715.929688 349.417969 716.351562 349.417969 C 747.554688 349.417969 778.042969 347.261719 808.148438 342.957031 C 810.308594 342.648438 812.472656 342.320312 814.632812 341.996094 C 816.511719 353.640625 819.292969 365.164062 822.066406 376.363281 C 819.398438 376.628906 816.730469 376.894531 814.070312 377.144531 C 781.824219 380.21875 748.949219 381.714844 715.082031 381.648438 Z M 1022.230469 309.027344 C 1026.097656 308.707031 1029.964844 308.402344 1033.835938 308.152344 C 1062.824219 306.265625 1092.425781 306.289062 1121.382812 306.566406 L 1149.421875 353.691406 C 1118.320312 353.769531 1087.164062 354.046875 1056.25 354.722656 C 1052.039062 354.8125 1047.824219 354.945312 1043.609375 355.097656 C 1036.8125 340.289062 1029.71875 325.007812 1022.230469 309.027344 Z M 1033.648438 305.265625 C 1029.402344 305.539062 1025.160156 305.875 1020.917969 306.238281 C 1015.085938 293.804688 1009.015625 280.953125 1002.648438 267.5625 C 1005.929688 267.152344 1009.210938 266.753906 1012.492188 266.390625 C 1039.929688 263.355469 1067.871094 262.820312 1095.363281 262.824219 L 1119.652344 303.65625 C 1091.203125 303.398438 1062.152344 303.410156 1033.648438 305.265625 Z M 1098.730469 262.824219 C 1105.25 262.835938 1111.742188 262.871094 1118.191406 262.910156 C 1126 262.953125 1133.8125 263 1141.617188 263 L 1191.085938 263 C 1201.265625 276.722656 1211.460938 290.441406 1221.621094 304.089844 L 1173.371094 304.089844 C 1160.617188 304.089844 1147.601562 303.949219 1135.015625 303.8125 C 1131.039062 303.769531 1127.042969 303.726562 1123.039062 303.6875 Z M 1194.691406 263 L 1287.414062 263 C 1299.703125 276.6875 1311.953125 290.410156 1324.125 304.089844 L 1225.234375 304.089844 C 1215.070312 290.445312 1204.875 276.726562 1194.691406 263 Z M 1188.9375 260.101562 L 1141.617188 260.101562 C 1133.816406 260.101562 1126.011719 260.058594 1118.207031 260.015625 C 1111.183594 259.976562 1104.113281 259.9375 1097.007812 259.929688 L 1075.953125 224.539062 C 1089.382812 224.308594 1102.480469 224.304688 1115.011719 224.304688 L 1162.460938 224.304688 C 1171.246094 236.214844 1180.082031 248.15625 1188.9375 260.101562 Z M 1115.011719 221.40625 C 1101.953125 221.40625 1088.277344 221.414062 1074.25 221.675781 L 1073.070312 219.691406 C 1067.324219 210.035156 1061.480469 200.371094 1055.511719 190.648438 C 1082.613281 189.324219 1109.828125 189.453125 1136.902344 190.21875 C 1144.667969 200.4375 1152.550781 210.859375 1160.210938 221.253906 C 1160.246094 221.304688 1160.285156 221.355469 1160.324219 221.40625 Z M 1053.78125 187.828125 C 1048.324219 178.96875 1042.746094 170.039062 1037.03125 161.007812 C 1049.394531 159.863281 1061.152344 159.335938 1072.53125 159.40625 C 1086.507812 159.503906 1100.570312 160.003906 1114.578125 160.773438 C 1120.164062 168.199219 1125.761719 175.566406 1131.277344 182.816406 C 1132.394531 184.289062 1133.53125 185.78125 1134.65625 187.261719 C 1107.753906 186.539062 1080.71875 186.457031 1053.78125 187.828125 Z M 1072.550781 156.511719 C 1060.617188 156.429688 1048.289062 156.996094 1035.289062 158.25 C 1030.542969 150.769531 1025.703125 143.210938 1020.738281 135.546875 C 1031.621094 134.03125 1042.042969 132.996094 1052.285156 132.414062 C 1066.042969 131.628906 1079.773438 131.671875 1093.515625 132.257812 C 1099.667969 140.800781 1105.964844 149.3125 1112.292969 157.746094 C 1099.050781 157.050781 1085.765625 156.601562 1072.550781 156.511719 Z M 1052.121094 129.523438 C 1041.355469 130.136719 1030.402344 131.238281 1018.929688 132.875 C 1014.917969 127.023438 1010.539062 121.789062 1005.90625 116.800781 C 1016.203125 115.230469 1026.761719 113.851562 1037.398438 112.808594 C 1049.878906 111.582031 1062.316406 111.113281 1074.882812 111.160156 C 1080.628906 116.070312 1085.960938 121.972656 1091.332031 129.269531 C 1078.273438 128.773438 1065.214844 128.777344 1052.121094 129.523438 Z M 1037.117188 109.929688 C 1025.746094 111.042969 1014.460938 112.535156 1003.5 114.238281 C 1000.429688 111.027344 997.269531 107.878906 994.042969 104.683594 C 1017.070312 103.089844 1039.199219 102.007812 1060.722656 101.414062 C 1064.460938 103.457031 1067.953125 105.714844 1071.289062 108.253906 C 1059.855469 108.308594 1048.511719 108.808594 1037.117188 109.929688 Z M 991.308594 101.972656 L 990.570312 101.238281 C 987.746094 98.429688 984.996094 95.5 982.292969 92.402344 C 1001.699219 92.746094 1021.152344 92.964844 1040.597656 92.964844 C 1042.175781 92.964844 1043.757812 92.953125 1045.335938 92.949219 C 1048.511719 94.917969 1051.875 96.8125 1055.445312 98.667969 C 1034.730469 99.3125 1013.433594 100.410156 991.308594 101.972656 Z M 968.605469 74.789062 C 965.488281 70.332031 962.335938 65.527344 959.101562 60.304688 C 978.003906 63.1875 997.042969 65.683594 1016.15625 67.460938 C 1019.859375 71.929688 1023.675781 75.96875 1027.734375 79.6875 C 1007.980469 78.660156 988.25 76.921875 968.605469 74.789062 Z M 964.800781 74.382812 C 944.695312 72.148438 924.699219 69.519531 904.871094 66.824219 C 902.46875 61.074219 900.160156 55.457031 897.933594 50 C 916.890625 53.367188 936.042969 56.722656 955.335938 59.71875 C 958.566406 65.003906 961.703125 69.859375 964.800781 74.382812 Z M 966.996094 77.53125 C 969.988281 81.769531 972.964844 85.707031 975.96875 89.398438 C 955.167969 88.996094 934.429688 88.449219 913.824219 87.851562 C 911.179688 81.773438 908.628906 75.785156 906.167969 69.925781 C 926.289062 72.652344 946.585938 75.300781 966.996094 77.53125 Z M 910.625 87.757812 C 898.757812 87.410156 886.929688 87.046875 875.167969 86.683594 C 865.730469 86.390625 856.21875 86.101562 846.683594 85.816406 C 845.101562 77.707031 843.480469 69.496094 841.761719 61.273438 C 857.441406 63.265625 873.035156 65.398438 888.484375 67.511719 C 893.253906 68.167969 898.042969 68.820312 902.835938 69.472656 C 905.335938 75.445312 907.933594 81.550781 910.625 87.757812 Z M 843.714844 85.730469 C 822.839844 85.109375 801.789062 84.539062 780.699219 84.101562 C 779.976562 74.261719 779.210938 64.335938 778.320312 54.414062 C 798.523438 56.101562 818.6875 58.371094 838.714844 60.890625 C 840.464844 69.207031 842.113281 77.515625 843.714844 85.730469 Z M 778.046875 51.488281 C 777.421875 44.746094 776.734375 38.015625 775.960938 31.328125 C 795.332031 33.296875 814.625 35.96875 833.785156 38.992188 C 835.308594 45.234375 836.71875 51.554688 838.070312 57.890625 C 818.167969 55.394531 798.128906 53.15625 778.046875 51.488281 Z M 775.113281 51.257812 C 755.105469 49.652344 735.0625 48.636719 715.082031 48.539062 L 715.082031 27.914062 C 734.421875 27.988281 753.75 29.148438 773.011719 31.03125 C 773.792969 37.734375 774.484375 44.488281 775.113281 51.257812 Z M 712.183594 48.527344 C 692.21875 48.503906 672.1875 49.203125 652.175781 50.390625 C 652.800781 43.722656 653.488281 37.066406 654.265625 30.457031 C 673.546875 28.886719 692.875 27.933594 712.183594 27.90625 Z M 649.25 50.574219 C 629.25 51.8125 609.273438 53.519531 589.410156 55.46875 C 590.691406 49.316406 592.050781 43.1875 593.535156 37.140625 C 612.695312 34.589844 631.980469 32.347656 651.320312 30.710938 C 650.550781 37.300781 649.871094 43.929688 649.25 50.574219 Z M 586.386719 55.769531 C 566.289062 57.769531 546.3125 59.992188 526.542969 62.210938 C 528.605469 56.761719 530.703125 51.316406 532.863281 45.929688 C 551.882812 43.054688 571.105469 40.160156 590.460938 37.550781 C 589 43.570312 587.652344 49.65625 586.386719 55.769531 Z M 523.304688 62.574219 C 503.535156 64.792969 483.558594 67.027344 463.453125 69.046875 C 466.390625 64.378906 469.289062 59.679688 472.09375 54.921875 L 471.898438 54.804688 C 491.273438 52.203125 510.515625 49.3125 529.554688 46.429688 C 527.421875 51.78125 525.339844 57.179688 523.304688 62.574219 Z M 459.808594 69.402344 C 440.195312 71.34375 420.472656 73.046875 400.714844 74.304688 C 404.398438 70.144531 407.914062 65.9375 411.289062 61.644531 L 411.21875 61.59375 C 430.398438 59.976562 449.515625 57.769531 468.507812 55.257812 C 465.675781 60.019531 462.773438 64.734375 459.808594 69.402344 Z M 445.835938 90.625 C 442.230469 95.925781 438.597656 101.183594 434.953125 106.386719 C 414.113281 105.167969 392.738281 104.226562 371.046875 103.753906 C 375.542969 99.769531 379.789062 95.84375 383.820312 91.9375 C 404.5625 91.546875 425.28125 91.097656 445.835938 90.625 Z M 432.996094 109.171875 C 429.871094 113.621094 426.746094 118.042969 423.640625 122.429688 C 423.246094 122.988281 422.847656 123.554688 422.453125 124.113281 C 400.164062 121.679688 377.574219 120.25 354.226562 119.808594 C 358.496094 115.246094 362.980469 110.824219 367.820312 106.59375 C 389.933594 107.03125 411.746094 107.945312 432.996094 109.171875 Z M 420.542969 126.808594 C 416.355469 132.730469 412.101562 138.769531 407.914062 144.808594 C 383.402344 142.390625 359.214844 141.652344 335.488281 141.933594 C 340.6875 135.335938 345.980469 128.875 351.621094 122.644531 C 375.234375 123.019531 398.046875 124.402344 420.542969 126.808594 Z M 389.527344 169.914062 C 388.488281 171.28125 387.449219 172.660156 386.417969 174.019531 C 382.320312 179.421875 378.175781 184.890625 374.078125 190.453125 C 347.425781 189.046875 320.582031 189.089844 293.902344 189.699219 C 296.148438 187.246094 298.394531 184.808594 300.625 182.390625 C 304.722656 177.953125 308.871094 173.453125 312.988281 168.878906 C 338.472656 168.125 364.054688 168.195312 389.527344 169.914062 Z M 372.042969 193.246094 C 365.804688 201.8125 359.726562 210.589844 354.199219 219.683594 C 353.871094 220.226562 353.542969 220.773438 353.210938 221.316406 C 340.6875 221.160156 328.214844 221.226562 315.921875 221.3125 C 308.582031 221.359375 301.246094 221.40625 293.914062 221.40625 L 266.96875 221.40625 C 266.996094 221.371094 267.023438 221.339844 267.046875 221.304688 C 274.542969 211.339844 282.839844 201.855469 291.203125 192.65625 C 318.101562 192.003906 345.175781 191.898438 372.042969 193.246094 Z M 293.914062 224.304688 C 301.25 224.304688 308.59375 224.253906 315.941406 224.207031 C 327.660156 224.128906 339.542969 224.0625 351.46875 224.191406 C 344.476562 235.722656 337.496094 247.316406 330.535156 258.9375 C 299.882812 258.375 269.125 258.621094 238.789062 259.027344 C 247.457031 247.417969 256.132812 235.828125 264.796875 224.304688 Z M 215.839844 262.25 C 221.523438 262.167969 227.234375 262.082031 232.953125 262.003906 C 222.539062 275.964844 212.152344 289.9375 201.824219 303.851562 C 196.871094 303.867188 191.910156 303.882812 186.984375 303.902344 C 159.433594 303.992188 130.972656 304.085938 102.929688 304.089844 C 115.09375 290.394531 127.347656 276.671875 139.648438 262.992188 L 139.648438 263 C 164.964844 263 190.828125 262.617188 215.839844 262.25 Z M 236.605469 261.953125 C 267.089844 261.535156 298.007812 261.269531 328.816406 261.804688 C 320.449219 275.792969 312.113281 289.800781 303.84375 303.753906 C 270.867188 303.667969 237.898438 303.738281 205.4375 303.839844 C 215.78125 289.90625 226.183594 275.921875 236.605469 261.953125 Z M 302.132812 306.644531 C 293.710938 320.855469 285.351562 335.007812 277.089844 348.992188 C 276.003906 350.828125 274.902344 352.691406 273.8125 354.535156 L 167.855469 354.535156 C 168.828125 353.21875 169.804688 351.90625 170.78125 350.589844 C 181.507812 336.113281 192.363281 321.460938 203.285156 306.742188 C 235.882812 306.640625 268.996094 306.5625 302.132812 306.644531 Z M 272.105469 357.433594 C 261.269531 375.769531 250.195312 394.503906 239.207031 412.976562 L 124.507812 412.976562 C 138.261719 394.476562 151.984375 375.957031 165.707031 357.433594 Z M 275.46875 357.433594 L 337.140625 357.433594 C 352.097656 357.433594 367.074219 357.804688 382.042969 358.4375 C 373.929688 376.238281 365.757812 394.386719 357.492188 412.976562 L 242.578125 412.976562 C 253.574219 394.484375 264.644531 375.753906 275.46875 357.433594 Z M 385.164062 358.574219 C 420.90625 360.179688 456.585938 363.324219 491.859375 366.976562 C 486.238281 381.945312 480.480469 397.386719 475.757812 412.976562 L 360.664062 412.976562 C 368.910156 394.433594 377.066406 376.328125 385.164062 358.574219 Z M 494.839844 367.285156 C 512.523438 369.128906 530.101562 371.09375 547.53125 373.039062 C 559.054688 374.324219 570.585938 375.613281 582.132812 376.867188 C 588.671875 377.578125 595.152344 378.230469 601.601562 378.839844 C 598.847656 389.949219 596.019531 401.414062 594.023438 412.976562 L 478.789062 412.976562 C 483.511719 397.511719 489.25 382.160156 494.839844 367.285156 Z M 604.503906 379.175781 C 604.511719 379.152344 604.515625 379.125 604.523438 379.101562 C 641.730469 382.554688 677.484375 384.355469 712.183594 384.515625 L 712.183594 412.976562 L 596.964844 412.976562 C 598.960938 401.558594 601.769531 390.1875 604.503906 379.175781 Z M 715.082031 384.539062 C 715.816406 384.539062 716.5625 384.554688 717.296875 384.554688 C 750.472656 384.554688 782.710938 383.042969 814.347656 380.027344 C 817.148438 379.761719 819.957031 379.484375 822.769531 379.203125 C 825.5 390.207031 828.308594 401.566406 830.304688 412.976562 L 715.082031 412.976562 Z M 825.679688 378.910156 C 847.824219 376.671875 870.121094 374.082031 891.78125 371.558594 C 905.183594 370 918.699219 368.425781 932.292969 366.921875 C 937.921875 381.910156 943.714844 397.386719 948.476562 412.976562 L 833.242188 412.976562 C 831.25 401.441406 828.429688 390 825.679688 378.910156 Z M 935.265625 366.597656 C 970.488281 362.738281 1006.203125 359.410156 1041.785156 358.0625 C 1050.457031 376.96875 1058.65625 395.113281 1066.601562 412.976562 L 951.507812 412.976562 C 946.746094 397.253906 940.929688 381.683594 935.265625 366.597656 Z M 1044.914062 357.941406 C 1048.714844 357.8125 1052.515625 357.699219 1056.3125 357.617188 C 1087.773438 356.933594 1119.488281 356.65625 1151.140625 356.585938 L 1184.6875 412.976562 L 1069.773438 412.976562 C 1061.808594 395.066406 1053.597656 376.878906 1044.914062 357.941406 Z M 1154.503906 356.578125 C 1190.261719 356.511719 1225.902344 356.710938 1261.003906 356.9375 C 1274.925781 375.609375 1288.847656 394.285156 1302.75 412.976562 L 1188.058594 412.976562 Z M 1152.785156 353.683594 L 1124.773438 306.597656 C 1128.183594 306.632812 1131.59375 306.667969 1134.984375 306.707031 C 1147.578125 306.84375 1160.601562 306.988281 1173.371094 306.988281 L 1223.777344 306.988281 C 1235.085938 322.171875 1246.34375 337.273438 1257.46875 352.191406 C 1257.925781 352.804688 1258.378906 353.414062 1258.835938 354.027344 C 1223.871094 353.804688 1188.382812 353.613281 1152.785156 353.683594 Z M 1249.835938 221.40625 L 1163.921875 221.40625 C 1163.464844 220.785156 1163 220.160156 1162.542969 219.535156 C 1155.335938 209.761719 1147.9375 199.957031 1140.625 190.332031 C 1160.523438 190.933594 1180.339844 191.855469 1199.976562 192.773438 C 1207.460938 193.121094 1214.941406 193.472656 1222.410156 193.800781 L 1222.417969 193.644531 C 1231.707031 202.582031 1241.078125 211.792969 1249.835938 221.40625 Z M 1215.402344 186.914062 C 1216.738281 188.191406 1218.078125 189.476562 1219.425781 190.765625 C 1212.992188 190.476562 1206.554688 190.183594 1200.109375 189.878906 C 1179.6875 188.925781 1159.074219 187.96875 1138.371094 187.363281 C 1136.769531 185.257812 1135.167969 183.148438 1133.582031 181.066406 C 1128.554688 174.457031 1123.457031 167.742188 1118.363281 160.984375 C 1144.425781 162.507812 1170.261719 164.945312 1195 167.484375 L 1195.042969 167.101562 C 1201.785156 173.867188 1208.636719 180.441406 1215.402344 186.914062 Z M 1192.253906 164.296875 C 1167.625 161.785156 1141.957031 159.414062 1116.082031 157.957031 C 1109.726562 149.507812 1103.40625 140.980469 1097.214844 132.421875 C 1121.300781 133.621094 1145.441406 136.460938 1169.890625 139.582031 C 1176.9375 148.21875 1184.492188 156.40625 1192.253906 164.296875 Z M 1167.210938 136.324219 C 1142.949219 133.25 1118.976562 130.507812 1095.03125 129.421875 C 1094.949219 129.304688 1094.859375 129.1875 1094.777344 129.070312 C 1089.679688 121.972656 1084.636719 116.132812 1079.285156 111.191406 C 1101.210938 111.476562 1123.597656 113.265625 1147.382812 115.40625 C 1154.042969 121.304688 1160.585938 128.226562 1167.210938 136.324219 Z M 1075.96875 108.265625 C 1072.875 105.6875 1069.652344 103.378906 1066.242188 101.273438 C 1087.261719 100.773438 1107.726562 100.746094 1127.898438 101.183594 C 1133.273438 104.332031 1138.464844 107.96875 1143.5625 112.160156 C 1120.023438 110.070312 1097.800781 108.394531 1075.96875 108.265625 Z M 1122.453125 98.179688 C 1102.5 97.832031 1082.238281 97.933594 1061.417969 98.496094 C 1060.664062 98.09375 1059.90625 97.695312 1059.132812 97.308594 C 1056.277344 95.875 1053.574219 94.417969 1050.980469 92.929688 C 1070.71875 92.851562 1090.4375 92.558594 1110.058594 91.9375 L 1110.050781 91.75 C 1110.886719 92.175781 1111.726562 92.605469 1112.570312 93.035156 C 1115.808594 94.683594 1119.132812 96.402344 1122.453125 98.179688 Z M 1089.734375 80.226562 C 1070.636719 80.988281 1051.488281 80.792969 1032.351562 79.90625 C 1028.078125 76.234375 1024.097656 72.257812 1020.269531 67.835938 C 1039.203125 69.492188 1058.210938 70.421875 1077.238281 70.265625 C 1081.246094 74.085938 1085.421875 77.328125 1089.734375 80.226562 Z M 894.558594 49.398438 C 896.796875 54.898438 899.125 60.570312 901.542969 66.375 C 897.3125 65.800781 893.089844 65.222656 888.875 64.644531 C 873.089844 62.484375 857.148438 60.304688 841.117188 58.273438 C 839.777344 51.976562 838.378906 45.695312 836.871094 39.476562 C 855.636719 42.476562 874.265625 45.789062 892.691406 49.066406 C 893.3125 49.179688 893.9375 49.289062 894.558594 49.398438 Z M 350.074219 64.375 C 369.183594 64.363281 388.300781 63.449219 407.363281 61.925781 C 403.933594 66.203125 400.359375 70.402344 396.601562 74.566406 C 376.859375 75.757812 357.085938 76.480469 337.367188 76.515625 C 341.738281 72.644531 346.003906 68.628906 350.074219 64.375 Z M 311.246094 97.742188 C 313.296875 96.152344 315.363281 94.542969 317.425781 92.929688 C 338.054688 92.71875 358.808594 92.398438 379.550781 92.019531 C 375.507812 95.863281 371.253906 99.738281 366.746094 103.675781 C 345.769531 103.277344 324.542969 103.324219 303.277344 103.964844 C 305.933594 101.878906 308.589844 99.804688 311.246094 97.742188 Z M 299.496094 106.964844 C 320.957031 106.242188 342.398438 106.15625 363.597656 106.515625 C 358.902344 110.773438 354.507812 115.1875 350.34375 119.738281 C 328.789062 119.429688 306.558594 119.964844 283.324219 121.304688 C 288.449219 116.332031 293.785156 111.542969 299.496094 106.964844 Z M 280.222656 124.378906 C 303.667969 122.953125 326.054688 122.363281 347.757812 122.609375 C 342.1875 128.886719 336.945312 135.378906 331.769531 141.988281 C 307.359375 142.386719 283.453125 143.839844 260.214844 145.632812 C 266.871094 138.300781 273.40625 131.1875 280.222656 124.378906 Z M 255.203125 151.152344 L 257.378906 148.753906 C 280.777344 146.917969 304.867188 145.394531 329.46875 144.925781 C 329.449219 144.949219 329.429688 144.976562 329.40625 145.003906 C 323.792969 152.214844 317.773438 159.199219 311.660156 166.019531 C 286.210938 166.800781 260.875 168.386719 235.847656 169.972656 C 242.585938 164.039062 249.136719 157.828125 255.203125 151.152344 Z M 215.800781 186.8125 C 221.261719 182.339844 226.789062 177.796875 232.242188 173.101562 L 234.5 172.960938 C 259.082031 171.402344 283.972656 169.828125 308.972656 169.003906 C 305.476562 172.859375 301.96875 176.667969 298.496094 180.429688 C 295.644531 183.519531 292.765625 186.636719 289.894531 189.789062 C 274.632812 190.167969 259.429688 190.707031 244.363281 191.25 C 232.734375 191.664062 220.765625 192.089844 208.96875 192.429688 C 211.25 190.546875 213.53125 188.671875 215.800781 186.8125 Z M 205.351562 195.433594 C 218.34375 195.074219 231.621094 194.601562 244.464844 194.140625 C 258.617188 193.632812 272.886719 193.128906 287.207031 192.753906 C 279.429688 201.367188 271.742188 210.242188 264.734375 219.5625 C 264.269531 220.175781 263.808594 220.792969 263.347656 221.40625 L 177.414062 221.40625 C 186.015625 212.046875 195.640625 203.550781 205.351562 195.433594 Z M 61.796875 350.554688 C 74.527344 336.148438 87.414062 321.570312 100.398438 306.945312 L 100.398438 306.988281 C 129.261719 306.988281 158.609375 306.890625 186.996094 306.796875 C 191.203125 306.78125 195.441406 306.769531 199.667969 306.753906 C 189.183594 320.886719 178.757812 334.960938 168.453125 348.867188 C 167.054688 350.757812 165.648438 352.644531 164.25 354.535156 L 58.273438 354.535156 C 59.445312 353.214844 60.628906 351.871094 61.796875 350.554688 Z M 55.714844 357.433594 L 162.101562 357.433594 C 148.378906 375.953125 134.65625 394.476562 120.902344 412.976562 L 6.464844 412.976562 C 22.929688 394.511719 39.511719 375.765625 55.714844 357.433594 Z M 1306.359375 412.976562 C 1292.464844 394.292969 1278.546875 375.625 1264.628906 356.957031 C 1266.316406 356.96875 1268.019531 356.980469 1269.703125 356.992188 C 1303.0625 357.207031 1337.554688 357.429688 1371.457031 357.433594 C 1387.695312 375.75 1404.316406 394.492188 1420.800781 412.976562 Z M 1306.359375 412.976562 " fill-opacity="1" fill-rule="nonzero"/></g><g fill="#f18a00" fill-opacity="0.4"><g transform="translate(70.999115, 280.708736)"><g><path d="M 67.78125 2.984375 C 41.695312 2.984375 21.265625 -6.148438 6.484375 -24.421875 L 29.40625 -47.34375 C 39.375 -34.550781 52.414062 -28.15625 68.53125 -28.15625 C 85.144531 -28.15625 93.453125 -35.46875 93.453125 -50.09375 C 93.453125 -56.070312 91.957031 -60.722656 88.96875 -64.046875 C 85.976562 -67.367188 81.328125 -69.691406 75.015625 -71.015625 L 59.0625 -74.015625 C 42.945312 -77.003906 31.109375 -82.609375 23.546875 -90.828125 C 15.992188 -99.054688 12.21875 -110.476562 12.21875 -125.09375 C 12.21875 -142.039062 17.195312 -154.914062 27.15625 -163.71875 C 37.125 -172.53125 51.742188 -176.9375 71.015625 -176.9375 C 95.609375 -176.9375 114.300781 -168.960938 127.09375 -153.015625 L 104.171875 -130.078125 C 99.847656 -135.398438 94.984375 -139.347656 89.578125 -141.921875 C 84.179688 -144.492188 77.832031 -145.78125 70.53125 -145.78125 C 62.550781 -145.78125 56.773438 -144.285156 53.203125 -141.296875 C 49.628906 -138.304688 47.84375 -133.488281 47.84375 -126.84375 C 47.84375 -121.03125 49.210938 -116.628906 51.953125 -113.640625 C 54.703125 -110.648438 59.148438 -108.488281 65.296875 -107.15625 L 81.234375 -103.921875 C 89.710938 -102.085938 96.984375 -99.882812 103.046875 -97.3125 C 109.109375 -94.738281 114.09375 -91.457031 118 -87.46875 C 121.90625 -83.476562 124.726562 -78.742188 126.46875 -73.265625 C 128.21875 -67.785156 129.09375 -61.390625 129.09375 -54.078125 C 129.09375 -35.472656 123.859375 -21.3125 113.390625 -11.59375 C 102.921875 -1.875 87.71875 2.984375 67.78125 2.984375 Z M 67.78125 2.984375 "/></g></g></g><g fill="#f18a00" fill-opacity="0.4"><g transform="translate(209.546821, 280.708736)"><g><path d="M 49.09375 0 C 36.96875 0 28.285156 -2.695312 23.046875 -8.09375 C 17.816406 -13.5 15.203125 -21.765625 15.203125 -32.890625 L 15.203125 -184.40625 L 50.09375 -184.40625 L 50.09375 -27.15625 L 64.796875 -27.15625 L 64.796875 0 Z M 49.09375 0 "/></g></g></g><g fill="#f18a00" fill-opacity="0.4"><g transform="translate(278.571521, 280.708736)"><g><path d="M 63.296875 2.984375 C 45.023438 2.984375 31.191406 -2.578125 21.796875 -13.703125 C 12.410156 -24.835938 7.71875 -42.035156 7.71875 -65.296875 C 7.71875 -88.554688 12.410156 -105.789062 21.796875 -117 C 31.191406 -128.21875 45.023438 -133.828125 63.296875 -133.828125 C 81.566406 -133.828125 95.394531 -128.21875 104.78125 -117 C 114.175781 -105.789062 118.875 -88.554688 118.875 -65.296875 C 118.875 -42.035156 114.175781 -24.835938 104.78125 -13.703125 C 95.394531 -2.578125 81.566406 2.984375 63.296875 2.984375 Z M 63.296875 -24.671875 C 76.085938 -24.671875 82.484375 -32.144531 82.484375 -47.09375 L 82.484375 -83.734375 C 82.484375 -98.679688 76.085938 -106.15625 63.296875 -106.15625 C 50.503906 -106.15625 44.109375 -98.679688 44.109375 -83.734375 L 44.109375 -47.09375 C 44.109375 -32.144531 50.503906 -24.671875 63.296875 -24.671875 Z M 63.296875 -24.671875 "/></g></g></g><g fill="#f18a00" fill-opacity="0.4"><g transform="translate(405.158305, 280.708736)"><g><path d="M 2.984375 -130.828125 L 37.125 -130.828125 L 49.84375 -67.78125 L 54.078125 -31.890625 L 57.5625 -31.890625 L 62.796875 -67.78125 L 77.75 -130.828125 L 111.640625 -130.828125 L 127.34375 -67.78125 L 132.578125 -31.890625 L 135.5625 -31.890625 L 139.796875 -67.78125 L 153.515625 -130.828125 L 185.40625 -130.828125 L 153.515625 0 L 115.375 0 L 100.671875 -63.796875 L 95.9375 -98.9375 L 92.453125 -98.9375 L 87.71875 -63.796875 L 73.015625 0 L 34.890625 0 Z M 2.984375 -130.828125 "/></g></g></g><g fill="#f18a00" fill-opacity="0.4"><g transform="translate(593.543371, 280.708736)"><g><path d="M 133.328125 -90.703125 L 135.3125 -119.859375 L 131.328125 -119.859375 L 120.609375 -92.203125 L 91.703125 -29.15625 L 63.046875 -92.203125 L 52.328125 -119.859375 L 48.34375 -119.859375 L 50.34375 -90.703125 L 50.34375 0 L 16.953125 0 L 16.953125 -173.9375 L 54.328125 -173.9375 L 78 -122.109375 L 90.953125 -84.984375 L 93.453125 -84.984375 L 106.40625 -122.109375 L 129.578125 -173.9375 L 166.71875 -173.9375 L 166.71875 0 L 133.328125 0 Z M 133.328125 -90.703125 "/></g></g></g><g fill="#f18a00" fill-opacity="0.4"><g transform="translate(777.443052, 280.708736)"><g><path d="M 63.296875 2.984375 C 45.023438 2.984375 31.191406 -2.578125 21.796875 -13.703125 C 12.410156 -24.835938 7.71875 -42.035156 7.71875 -65.296875 C 7.71875 -88.554688 12.410156 -105.789062 21.796875 -117 C 31.191406 -128.21875 45.023438 -133.828125 63.296875 -133.828125 C 81.566406 -133.828125 95.394531 -128.21875 104.78125 -117 C 114.175781 -105.789062 118.875 -88.554688 118.875 -65.296875 C 118.875 -42.035156 114.175781 -24.835938 104.78125 -13.703125 C 95.394531 -2.578125 81.566406 2.984375 63.296875 2.984375 Z M 63.296875 -24.671875 C 76.085938 -24.671875 82.484375 -32.144531 82.484375 -47.09375 L 82.484375 -83.734375 C 82.484375 -98.679688 76.085938 -106.15625 63.296875 -106.15625 C 50.503906 -106.15625 44.109375 -98.679688 44.109375 -83.734375 L 44.109375 -47.09375 C 44.109375 -32.144531 50.503906 -24.671875 63.296875 -24.671875 Z M 63.296875 -24.671875 "/></g></g></g><g fill="#f18a00" fill-opacity="0.4"><g transform="translate(904.029837, 280.708736)"><g><path d="M 133.328125 -90.703125 L 135.3125 -119.859375 L 131.328125 -119.859375 L 120.609375 -92.203125 L 91.703125 -29.15625 L 63.046875 -92.203125 L 52.328125 -119.859375 L 48.34375 -119.859375 L 50.34375 -90.703125 L 50.34375 0 L 16.953125 0 L 16.953125 -173.9375 L 54.328125 -173.9375 L 78 -122.109375 L 90.953125 -84.984375 L 93.453125 -84.984375 L 106.40625 -122.109375 L 129.578125 -173.9375 L 166.71875 -173.9375 L 166.71875 0 L 133.328125 0 Z M 133.328125 -90.703125 "/></g></g></g><g fill="#f18a00" fill-opacity="0.4"><g transform="translate(1087.929518, 280.708736)"><g><path d="M 101.421875 0 C 87.796875 0 80.40625 -7.554688 79.25 -22.671875 L 76 -22.671875 C 74.675781 -14.703125 71.101562 -8.429688 65.28125 -3.859375 C 59.46875 0.703125 52.078125 2.984375 43.109375 2.984375 C 31.316406 2.984375 22.425781 -0.375 16.4375 -7.09375 C 10.457031 -13.820312 7.46875 -23.171875 7.46875 -35.140625 C 7.46875 -49.421875 11.828125 -59.800781 20.546875 -66.28125 C 29.273438 -72.757812 41.445312 -76 57.0625 -76 L 76 -76 L 76 -86.21875 C 76 -93.03125 74.585938 -98.097656 71.765625 -101.421875 C 68.941406 -104.742188 64.207031 -106.40625 57.5625 -106.40625 C 51.75 -106.40625 46.890625 -104.953125 42.984375 -102.046875 C 39.078125 -99.140625 35.628906 -95.273438 32.640625 -90.453125 L 11.96875 -108.90625 C 17.28125 -116.707031 23.753906 -122.8125 31.390625 -127.21875 C 39.035156 -131.625 48.84375 -133.828125 60.8125 -133.828125 C 77.914062 -133.828125 90.535156 -129.835938 98.671875 -121.859375 C 106.816406 -113.890625 110.890625 -102.007812 110.890625 -86.21875 L 110.890625 -27.15625 L 121.609375 -27.15625 L 121.609375 0 Z M 57.0625 -21.4375 C 62.21875 -21.4375 66.660156 -22.890625 70.390625 -25.796875 C 74.128906 -28.703125 76 -33.226562 76 -39.375 L 76 -55.578125 L 60.3125 -55.578125 C 48.34375 -55.578125 42.359375 -50.59375 42.359375 -40.625 L 42.359375 -35.890625 C 42.359375 -30.898438 43.644531 -27.242188 46.21875 -24.921875 C 48.800781 -22.597656 52.414062 -21.4375 57.0625 -21.4375 Z M 57.0625 -21.4375 "/></g></g></g><g fill="#f18a00" fill-opacity="0.4"><g transform="translate(1216.509715, 280.708736)"><g><path d="M 15.203125 0 L 15.203125 -130.828125 L 50.09375 -130.828125 L 50.09375 -108.65625 L 54.078125 -108.65625 C 55.078125 -112.144531 56.40625 -115.382812 58.0625 -118.375 C 59.726562 -121.363281 61.804688 -124.019531 64.296875 -126.34375 C 66.785156 -128.664062 69.691406 -130.492188 73.015625 -131.828125 C 76.335938 -133.160156 80.160156 -133.828125 84.484375 -133.828125 C 96.273438 -133.828125 105.285156 -129.878906 111.515625 -121.984375 C 117.742188 -114.085938 120.859375 -103.082031 120.859375 -88.96875 L 120.859375 0 L 85.96875 0 L 85.96875 -82.234375 C 85.96875 -97.679688 80.570312 -105.40625 69.78125 -105.40625 C 64.457031 -105.40625 59.84375 -103.785156 55.9375 -100.546875 C 52.039062 -97.304688 50.09375 -92.78125 50.09375 -86.96875 L 50.09375 0 Z M 15.203125 0 "/></g></g></g><g fill="#f18a00" fill-opacity="1"><g transform="translate(80.500239, 266.078289)"><g><path d="M 67.78125 2.984375 C 41.695312 2.984375 21.265625 -6.148438 6.484375 -24.421875 L 29.40625 -47.34375 C 39.375 -34.550781 52.414062 -28.15625 68.53125 -28.15625 C 85.144531 -28.15625 93.453125 -35.46875 93.453125 -50.09375 C 93.453125 -56.070312 91.957031 -60.722656 88.96875 -64.046875 C 85.976562 -67.367188 81.328125 -69.691406 75.015625 -71.015625 L 59.0625 -74.015625 C 42.945312 -77.003906 31.109375 -82.609375 23.546875 -90.828125 C 15.992188 -99.054688 12.21875 -110.476562 12.21875 -125.09375 C 12.21875 -142.039062 17.195312 -154.914062 27.15625 -163.71875 C 37.125 -172.53125 51.742188 -176.9375 71.015625 -176.9375 C 95.609375 -176.9375 114.300781 -168.960938 127.09375 -153.015625 L 104.171875 -130.078125 C 99.847656 -135.398438 94.984375 -139.347656 89.578125 -141.921875 C 84.179688 -144.492188 77.832031 -145.78125 70.53125 -145.78125 C 62.550781 -145.78125 56.773438 -144.285156 53.203125 -141.296875 C 49.628906 -138.304688 47.84375 -133.488281 47.84375 -126.84375 C 47.84375 -121.03125 49.210938 -116.628906 51.953125 -113.640625 C 54.703125 -110.648438 59.148438 -108.488281 65.296875 -107.15625 L 81.234375 -103.921875 C 89.710938 -102.085938 96.984375 -99.882812 103.046875 -97.3125 C 109.109375 -94.738281 114.09375 -91.457031 118 -87.46875 C 121.90625 -83.476562 124.726562 -78.742188 126.46875 -73.265625 C 128.21875 -67.785156 129.09375 -61.390625 129.09375 -54.078125 C 129.09375 -35.472656 123.859375 -21.3125 113.390625 -11.59375 C 102.921875 -1.875 87.71875 2.984375 67.78125 2.984375 Z M 67.78125 2.984375 "/></g></g></g><g fill="#f18a00" fill-opacity="1"><g transform="translate(219.047945, 266.078289)"><g><path d="M 49.09375 0 C 36.96875 0 28.285156 -2.695312 23.046875 -8.09375 C 17.816406 -13.5 15.203125 -21.765625 15.203125 -32.890625 L 15.203125 -184.40625 L 50.09375 -184.40625 L 50.09375 -27.15625 L 64.796875 -27.15625 L 64.796875 0 Z M 49.09375 0 "/></g></g></g><g fill="#f18a00" fill-opacity="1"><g transform="translate(288.072645, 266.078289)"><g><path d="M 63.296875 2.984375 C 45.023438 2.984375 31.191406 -2.578125 21.796875 -13.703125 C 12.410156 -24.835938 7.71875 -42.035156 7.71875 -65.296875 C 7.71875 -88.554688 12.410156 -105.789062 21.796875 -117 C 31.191406 -128.21875 45.023438 -133.828125 63.296875 -133.828125 C 81.566406 -133.828125 95.394531 -128.21875 104.78125 -117 C 114.175781 -105.789062 118.875 -88.554688 118.875 -65.296875 C 118.875 -42.035156 114.175781 -24.835938 104.78125 -13.703125 C 95.394531 -2.578125 81.566406 2.984375 63.296875 2.984375 Z M 63.296875 -24.671875 C 76.085938 -24.671875 82.484375 -32.144531 82.484375 -47.09375 L 82.484375 -83.734375 C 82.484375 -98.679688 76.085938 -106.15625 63.296875 -106.15625 C 50.503906 -106.15625 44.109375 -98.679688 44.109375 -83.734375 L 44.109375 -47.09375 C 44.109375 -32.144531 50.503906 -24.671875 63.296875 -24.671875 Z M 63.296875 -24.671875 "/></g></g></g><g fill="#f18a00" fill-opacity="1"><g transform="translate(414.659429, 266.078289)"><g><path d="M 2.984375 -130.828125 L 37.125 -130.828125 L 49.84375 -67.78125 L 54.078125 -31.890625 L 57.5625 -31.890625 L 62.796875 -67.78125 L 77.75 -130.828125 L 111.640625 -130.828125 L 127.34375 -67.78125 L 132.578125 -31.890625 L 135.5625 -31.890625 L 139.796875 -67.78125 L 153.515625 -130.828125 L 185.40625 -130.828125 L 153.515625 0 L 115.375 0 L 100.671875 -63.796875 L 95.9375 -98.9375 L 92.453125 -98.9375 L 87.71875 -63.796875 L 73.015625 0 L 34.890625 0 Z M 2.984375 -130.828125 "/></g></g></g><g fill="#f18a00" fill-opacity="1"><g transform="translate(603.044495, 266.078289)"><g><path d="M 133.328125 -90.703125 L 135.3125 -119.859375 L 131.328125 -119.859375 L 120.609375 -92.203125 L 91.703125 -29.15625 L 63.046875 -92.203125 L 52.328125 -119.859375 L 48.34375 -119.859375 L 50.34375 -90.703125 L 50.34375 0 L 16.953125 0 L 16.953125 -173.9375 L 54.328125 -173.9375 L 78 -122.109375 L 90.953125 -84.984375 L 93.453125 -84.984375 L 106.40625 -122.109375 L 129.578125 -173.9375 L 166.71875 -173.9375 L 166.71875 0 L 133.328125 0 Z M 133.328125 -90.703125 "/></g></g></g><g fill="#f18a00" fill-opacity="1"><g transform="translate(786.944177, 266.078289)"><g><path d="M 63.296875 2.984375 C 45.023438 2.984375 31.191406 -2.578125 21.796875 -13.703125 C 12.410156 -24.835938 7.71875 -42.035156 7.71875 -65.296875 C 7.71875 -88.554688 12.410156 -105.789062 21.796875 -117 C 31.191406 -128.21875 45.023438 -133.828125 63.296875 -133.828125 C 81.566406 -133.828125 95.394531 -128.21875 104.78125 -117 C 114.175781 -105.789062 118.875 -88.554688 118.875 -65.296875 C 118.875 -42.035156 114.175781 -24.835938 104.78125 -13.703125 C 95.394531 -2.578125 81.566406 2.984375 63.296875 2.984375 Z M 63.296875 -24.671875 C 76.085938 -24.671875 82.484375 -32.144531 82.484375 -47.09375 L 82.484375 -83.734375 C 82.484375 -98.679688 76.085938 -106.15625 63.296875 -106.15625 C 50.503906 -106.15625 44.109375 -98.679688 44.109375 -83.734375 L 44.109375 -47.09375 C 44.109375 -32.144531 50.503906 -24.671875 63.296875 -24.671875 Z M 63.296875 -24.671875 "/></g></g></g><g fill="#f18a00" fill-opacity="1"><g transform="translate(913.530961, 266.078289)"><g><path d="M 133.328125 -90.703125 L 135.3125 -119.859375 L 131.328125 -119.859375 L 120.609375 -92.203125 L 91.703125 -29.15625 L 63.046875 -92.203125 L 52.328125 -119.859375 L 48.34375 -119.859375 L 50.34375 -90.703125 L 50.34375 0 L 16.953125 0 L 16.953125 -173.9375 L 54.328125 -173.9375 L 78 -122.109375 L 90.953125 -84.984375 L 93.453125 -84.984375 L 106.40625 -122.109375 L 129.578125 -173.9375 L 166.71875 -173.9375 L 166.71875 0 L 133.328125 0 Z M 133.328125 -90.703125 "/></g></g></g><g fill="#f18a00" fill-opacity="1"><g transform="translate(1097.430642, 266.078289)"><g><path d="M 101.421875 0 C 87.796875 0 80.40625 -7.554688 79.25 -22.671875 L 76 -22.671875 C 74.675781 -14.703125 71.101562 -8.429688 65.28125 -3.859375 C 59.46875 0.703125 52.078125 2.984375 43.109375 2.984375 C 31.316406 2.984375 22.425781 -0.375 16.4375 -7.09375 C 10.457031 -13.820312 7.46875 -23.171875 7.46875 -35.140625 C 7.46875 -49.421875 11.828125 -59.800781 20.546875 -66.28125 C 29.273438 -72.757812 41.445312 -76 57.0625 -76 L 76 -76 L 76 -86.21875 C 76 -93.03125 74.585938 -98.097656 71.765625 -101.421875 C 68.941406 -104.742188 64.207031 -106.40625 57.5625 -106.40625 C 51.75 -106.40625 46.890625 -104.953125 42.984375 -102.046875 C 39.078125 -99.140625 35.628906 -95.273438 32.640625 -90.453125 L 11.96875 -108.90625 C 17.28125 -116.707031 23.753906 -122.8125 31.390625 -127.21875 C 39.035156 -131.625 48.84375 -133.828125 60.8125 -133.828125 C 77.914062 -133.828125 90.535156 -129.835938 98.671875 -121.859375 C 106.816406 -113.890625 110.890625 -102.007812 110.890625 -86.21875 L 110.890625 -27.15625 L 121.609375 -27.15625 L 121.609375 0 Z M 57.0625 -21.4375 C 62.21875 -21.4375 66.660156 -22.890625 70.390625 -25.796875 C 74.128906 -28.703125 76 -33.226562 76 -39.375 L 76 -55.578125 L 60.3125 -55.578125 C 48.34375 -55.578125 42.359375 -50.59375 42.359375 -40.625 L 42.359375 -35.890625 C 42.359375 -30.898438 43.644531 -27.242188 46.21875 -24.921875 C 48.800781 -22.597656 52.414062 -21.4375 57.0625 -21.4375 Z M 57.0625 -21.4375 "/></g></g></g><g fill="#f18a00" fill-opacity="1"><g transform="translate(1226.010839, 266.078289)"><g><path d="M 15.203125 0 L 15.203125 -130.828125 L 50.09375 -130.828125 L 50.09375 -108.65625 L 54.078125 -108.65625 C 55.078125 -112.144531 56.40625 -115.382812 58.0625 -118.375 C 59.726562 -121.363281 61.804688 -124.019531 64.296875 -126.34375 C 66.785156 -128.664062 69.691406 -130.492188 73.015625 -131.828125 C 76.335938 -133.160156 80.160156 -133.828125 84.484375 -133.828125 C 96.273438 -133.828125 105.285156 -129.878906 111.515625 -121.984375 C 117.742188 -114.085938 120.859375 -103.082031 120.859375 -88.96875 L 120.859375 0 L 85.96875 0 L 85.96875 -82.234375 C 85.96875 -97.679688 80.570312 -105.40625 69.78125 -105.40625 C 64.457031 -105.40625 59.84375 -103.785156 55.9375 -100.546875 C 52.039062 -97.304688 50.09375 -92.78125 50.09375 -86.96875 L 50.09375 0 Z M 15.203125 0 "/></g></g></g></svg>