<svg xmlns="http://www.w3.org/2000/svg" xmlns:xlink="http://www.w3.org/1999/xlink" width="1920" zoomAndPan="magnify" viewBox="0 0 1440 404.99999" height="540" preserveAspectRatio="xMidYMid meet" version="1.0"><defs><g/><clipPath id="id1"><path d="M 106.347656 6.980469 L 1273.347656 6.980469 L 1273.347656 397.730469 L 106.347656 397.730469 Z M 106.347656 6.980469 " clip-rule="nonzero"/></clipPath></defs><path fill="#a6a6a6" d="M 1238.765625 214.570312 C 1238.765625 294.054688 1169.609375 358.566406 1095.84375 358.566406 L 250.429688 358.566406 C 229.679688 358.566406 208.933594 353.957031 190.492188 345.894531 C 214.699219 371.238281 248.121094 386.210938 282.753906 386.210938 L 1130.421875 386.210938 C 1203.035156 386.210938 1262.96875 326.3125 1262.96875 253.738281 L 1262.96875 190.140625 C 1262.96875 156.734375 1250.289062 126.785156 1230.695312 103.746094 C 1236.457031 118.722656 1238.765625 134.847656 1238.765625 150.976562 L 1238.765625 214.570312 " fill-opacity="1" fill-rule="nonzero"/><path fill="#f18a00" d="M 250.429688 347.046875 L 1093.539062 347.046875 C 1166.152344 347.046875 1226.085938 287.144531 1226.085938 214.570312 L 1226.085938 150.976562 C 1226.085938 78.402344 1166.152344 18.5 1093.539062 18.5 L 250.429688 18.5 C 177.816406 18.5 117.882812 78.402344 117.882812 150.976562 L 117.882812 214.570312 C 117.882812 288.296875 177.816406 347.046875 250.429688 347.046875 " fill-opacity="1" fill-rule="nonzero"/><g clip-path="url(#id1)"><path fill="#737373" d="M 1215.710938 74.945312 C 1190.355469 34.628906 1145.40625 6.980469 1093.539062 6.980469 L 250.429688 6.980469 C 170.898438 6.980469 106.355469 71.492188 106.355469 150.976562 L 106.355469 214.570312 C 106.355469 261.800781 129.40625 303.273438 163.984375 329.765625 C 189.339844 370.085938 234.292969 397.730469 283.554688 397.730469 L 1129.269531 397.730469 C 1208.796875 397.730469 1273.339844 333.222656 1273.339844 253.738281 L 1273.339844 190.140625 C 1273.339844 142.914062 1250.289062 101.441406 1215.710938 74.945312 M 117.882812 214.570312 L 117.882812 150.976562 C 117.882812 78.402344 177.816406 18.5 250.429688 18.5 L 1093.539062 18.5 C 1166.152344 18.5 1226.085938 78.402344 1226.085938 150.976562 L 1226.085938 214.570312 C 1226.085938 287.144531 1166.152344 347.046875 1093.539062 347.046875 L 250.429688 347.046875 C 177.816406 347.046875 117.882812 288.296875 117.882812 214.570312 M 1262.96875 253.738281 C 1262.96875 326.3125 1201.882812 386.210938 1129.269531 386.210938 L 283.554688 386.210938 C 249.277344 386.210938 215.851562 371.238281 191.644531 345.894531 C 210.085938 353.957031 229.679688 358.566406 251.582031 358.566406 L 1094.691406 358.566406 C 1174.21875 358.566406 1238.765625 294.054688 1238.765625 214.570312 L 1238.765625 150.976562 C 1238.765625 134.847656 1235.304688 118.722656 1230.695312 103.746094 C 1250.289062 126.785156 1262.96875 156.734375 1262.96875 190.140625 L 1262.96875 253.738281 " fill-opacity="1" fill-rule="nonzero"/></g><g fill="#000000" fill-opacity="1"><g transform="translate(290.599218, 239.63906)"><g><path d="M 74.421875 27.375 L 60.5 27.375 C 52.738281 27.375 47.316406 25.734375 44.234375 22.453125 C 41.160156 19.179688 39.625 14.117188 39.625 7.265625 L 39.625 1.0625 C 34.582031 0.25 30.046875 -1.390625 26.015625 -3.859375 C 21.984375 -6.328125 18.53125 -9.753906 15.65625 -14.140625 C 12.78125 -18.523438 10.5625 -23.894531 9 -30.25 C 7.4375 -36.601562 6.65625 -44.113281 6.65625 -52.78125 C 6.65625 -62.664062 7.660156 -71.0625 9.671875 -77.96875 C 11.691406 -84.875 14.515625 -90.519531 18.140625 -94.90625 C 21.773438 -99.289062 26.160156 -102.46875 31.296875 -104.4375 C 36.441406 -106.40625 42.191406 -107.390625 48.546875 -107.390625 C 54.898438 -107.390625 60.644531 -106.40625 65.78125 -104.4375 C 70.925781 -102.46875 75.3125 -99.289062 78.9375 -94.90625 C 82.570312 -90.519531 85.398438 -84.875 87.421875 -77.96875 C 89.441406 -71.0625 90.453125 -62.664062 90.453125 -52.78125 C 90.453125 -44.414062 89.71875 -37.128906 88.25 -30.921875 C 86.789062 -24.722656 84.722656 -19.457031 82.046875 -15.125 C 79.378906 -10.789062 76.15625 -7.3125 72.375 -4.6875 C 68.59375 -2.0625 64.332031 -0.25 59.59375 0.75 L 59.59375 9.984375 L 74.421875 9.984375 Z M 48.546875 -17.25 C 54.597656 -17.25 59.257812 -19.0625 62.53125 -22.6875 C 65.8125 -26.3125 67.453125 -31.753906 67.453125 -39.015625 L 67.453125 -66.546875 C 67.453125 -73.804688 65.8125 -79.25 62.53125 -82.875 C 59.257812 -86.507812 54.597656 -88.328125 48.546875 -88.328125 C 42.492188 -88.328125 37.828125 -86.507812 34.546875 -82.875 C 31.273438 -79.25 29.640625 -73.804688 29.640625 -66.546875 L 29.640625 -39.015625 C 29.640625 -31.753906 31.273438 -26.3125 34.546875 -22.6875 C 37.828125 -19.0625 42.492188 -17.25 48.546875 -17.25 Z M 48.546875 -17.25 "/></g></g></g><g fill="#000000" fill-opacity="1"><g transform="translate(387.696746, 239.63906)"><g><path d="M 51.28125 -13.46875 L 48.859375 -13.46875 C 48.253906 -11.34375 47.421875 -9.375 46.359375 -7.5625 C 45.296875 -5.75 44.007812 -4.132812 42.5 -2.71875 C 40.988281 -1.3125 39.222656 -0.207031 37.203125 0.59375 C 35.191406 1.40625 32.820312 1.8125 30.09375 1.8125 C 23.039062 1.8125 17.644531 -0.578125 13.90625 -5.359375 C 10.175781 -10.148438 8.3125 -16.832031 8.3125 -25.40625 L 8.3125 -79.40625 L 29.5 -79.40625 L 29.5 -29.5 C 29.5 -20.113281 32.773438 -15.421875 39.328125 -15.421875 C 42.554688 -15.421875 45.351562 -16.40625 47.71875 -18.375 C 50.09375 -20.34375 51.28125 -23.09375 51.28125 -26.625 L 51.28125 -79.40625 L 72.453125 -79.40625 L 72.453125 0 L 51.28125 0 Z M 51.28125 -13.46875 "/></g></g></g><g fill="#000000" fill-opacity="1"><g transform="translate(469.367558, 239.63906)"><g><path d="M 19.8125 -89.09375 C 15.476562 -89.09375 12.328125 -90.023438 10.359375 -91.890625 C 8.390625 -93.753906 7.40625 -96.296875 7.40625 -99.515625 L 7.40625 -102.84375 C 7.40625 -106.070312 8.390625 -108.617188 10.359375 -110.484375 C 12.328125 -112.347656 15.476562 -113.28125 19.8125 -113.28125 C 24.144531 -113.28125 27.296875 -112.347656 29.265625 -110.484375 C 31.234375 -108.617188 32.21875 -106.070312 32.21875 -102.84375 L 32.21875 -99.515625 C 32.21875 -96.296875 31.234375 -93.753906 29.265625 -91.890625 C 27.296875 -90.023438 24.144531 -89.09375 19.8125 -89.09375 Z M 9.21875 -79.40625 L 30.40625 -79.40625 L 30.40625 0 L 9.21875 0 Z M 9.21875 -79.40625 "/></g></g></g><g fill="#000000" fill-opacity="1"><g transform="translate(508.993032, 239.63906)"><g><path d="M 38.265625 1.8125 C 27.171875 1.8125 18.800781 -1.5625 13.15625 -8.3125 C 7.507812 -15.070312 4.6875 -25.507812 4.6875 -39.625 C 4.6875 -53.738281 7.507812 -64.195312 13.15625 -71 C 18.800781 -77.8125 27.171875 -81.21875 38.265625 -81.21875 C 46.128906 -81.21875 52.40625 -79.425781 57.09375 -75.84375 C 61.78125 -72.269531 65.132812 -67.207031 67.15625 -60.65625 L 50.0625 -53.09375 C 49.5625 -56.925781 48.398438 -59.773438 46.578125 -61.640625 C 44.765625 -63.503906 41.992188 -64.4375 38.265625 -64.4375 C 30.597656 -64.4375 26.765625 -59.894531 26.765625 -50.8125 L 26.765625 -28.59375 C 26.765625 -19.507812 30.597656 -14.96875 38.265625 -14.96875 C 42.097656 -14.96875 44.945312 -15.953125 46.8125 -17.921875 C 48.675781 -19.890625 50.0625 -22.890625 50.96875 -26.921875 L 67.453125 -19.65625 C 63.117188 -5.34375 53.390625 1.8125 38.265625 1.8125 Z M 38.265625 1.8125 "/></g></g></g><g fill="#000000" fill-opacity="1"><g transform="translate(579.774415, 239.63906)"><g><path d="M 9.21875 -111.921875 L 30.40625 -111.921875 L 30.40625 -62.015625 L 29.1875 -45.21875 L 31.609375 -45.21875 L 40.234375 -59.75 L 54.296875 -79.40625 L 77.890625 -79.40625 L 53.84375 -48.25 L 78.796875 0 L 55.515625 0 L 39.328125 -34.328125 L 30.40625 -23.140625 L 30.40625 0 L 9.21875 0 Z M 9.21875 -111.921875 "/></g></g></g><g fill="#000000" fill-opacity="1"><g transform="translate(659.025341, 239.63906)"><g/></g></g><g fill="#000000" fill-opacity="1"><g transform="translate(691.088709, 239.63906)"><g><path d="M 41.140625 1.8125 C 25.304688 1.8125 12.90625 -3.734375 3.9375 -14.828125 L 17.84375 -28.734375 C 23.894531 -20.972656 31.8125 -17.09375 41.59375 -17.09375 C 51.675781 -17.09375 56.71875 -21.53125 56.71875 -30.40625 C 56.71875 -34.03125 55.8125 -36.847656 54 -38.859375 C 52.1875 -40.878906 49.363281 -42.296875 45.53125 -43.109375 L 35.84375 -44.921875 C 26.0625 -46.734375 18.875 -50.132812 14.28125 -55.125 C 9.695312 -60.125 7.40625 -67.054688 7.40625 -75.921875 C 7.40625 -86.210938 10.429688 -94.03125 16.484375 -99.375 C 22.535156 -104.71875 31.410156 -107.390625 43.109375 -107.390625 C 58.023438 -107.390625 69.367188 -102.550781 77.140625 -92.875 L 63.21875 -78.953125 C 60.601562 -82.179688 57.65625 -84.578125 54.375 -86.140625 C 51.09375 -87.703125 47.234375 -88.484375 42.796875 -88.484375 C 37.960938 -88.484375 34.460938 -87.570312 32.296875 -85.75 C 30.128906 -83.9375 29.046875 -81.015625 29.046875 -76.984375 C 29.046875 -73.453125 29.875 -70.78125 31.53125 -68.96875 C 33.195312 -67.15625 35.894531 -65.84375 39.625 -65.03125 L 49.3125 -63.078125 C 54.445312 -61.960938 58.851562 -60.625 62.53125 -59.0625 C 66.21875 -57.5 69.242188 -55.503906 71.609375 -53.078125 C 73.984375 -50.660156 75.695312 -47.785156 76.75 -44.453125 C 77.8125 -41.128906 78.34375 -37.253906 78.34375 -32.828125 C 78.34375 -21.523438 75.164062 -12.925781 68.8125 -7.03125 C 62.46875 -1.132812 53.242188 1.8125 41.140625 1.8125 Z M 41.140625 1.8125 "/></g></g></g><g fill="#000000" fill-opacity="1"><g transform="translate(775.179386, 239.63906)"><g><path d="M 33.734375 0 C 26.472656 0 21.203125 -1.613281 17.921875 -4.84375 C 14.640625 -8.070312 13 -13.210938 13 -20.265625 L 13 -62.921875 L 3.03125 -62.921875 L 3.03125 -79.40625 L 7.859375 -79.40625 C 10.679688 -79.40625 12.597656 -80.007812 13.609375 -81.21875 C 14.617188 -82.425781 15.125 -84.394531 15.125 -87.125 L 15.125 -100.890625 L 34.1875 -100.890625 L 34.1875 -79.40625 L 48.09375 -79.40625 L 48.09375 -62.921875 L 34.1875 -62.921875 L 34.1875 -16.484375 L 46.578125 -16.484375 L 46.578125 0 Z M 33.734375 0 "/></g></g></g><g fill="#000000" fill-opacity="1"><g transform="translate(826.904252, 239.63906)"><g><path d="M 61.5625 0 C 53.289062 0 48.800781 -4.585938 48.09375 -13.765625 L 46.125 -13.765625 C 45.320312 -8.921875 43.15625 -5.113281 39.625 -2.34375 C 36.09375 0.425781 31.609375 1.8125 26.171875 1.8125 C 19.003906 1.8125 13.601562 -0.226562 9.96875 -4.3125 C 6.34375 -8.394531 4.53125 -14.066406 4.53125 -21.328125 C 4.53125 -29.992188 7.175781 -36.289062 12.46875 -40.21875 C 17.769531 -44.15625 25.160156 -46.125 34.640625 -46.125 L 46.125 -46.125 L 46.125 -52.328125 C 46.125 -56.460938 45.265625 -59.535156 43.546875 -61.546875 C 41.835938 -63.566406 38.96875 -64.578125 34.9375 -64.578125 C 31.40625 -64.578125 28.453125 -63.695312 26.078125 -61.9375 C 23.710938 -60.175781 21.625 -57.832031 19.8125 -54.90625 L 7.265625 -66.09375 C 10.484375 -70.832031 14.410156 -74.535156 19.046875 -77.203125 C 23.691406 -79.878906 29.644531 -81.21875 36.90625 -81.21875 C 47.289062 -81.21875 54.953125 -78.796875 59.890625 -73.953125 C 64.835938 -69.117188 67.3125 -61.910156 67.3125 -52.328125 L 67.3125 -16.484375 L 73.8125 -16.484375 L 73.8125 0 Z M 34.640625 -13 C 37.765625 -13 40.457031 -13.878906 42.71875 -15.640625 C 44.988281 -17.410156 46.125 -20.160156 46.125 -23.890625 L 46.125 -33.734375 L 36.609375 -33.734375 C 29.347656 -33.734375 25.71875 -30.707031 25.71875 -24.65625 L 25.71875 -21.78125 C 25.71875 -18.757812 26.5 -16.539062 28.0625 -15.125 C 29.625 -13.707031 31.816406 -13 34.640625 -13 Z M 34.640625 -13 "/></g></g></g><g fill="#000000" fill-opacity="1"><g transform="translate(904.945263, 239.63906)"><g><path d="M 9.21875 0 L 9.21875 -79.40625 L 30.40625 -79.40625 L 30.40625 -62.46875 L 32.828125 -62.46875 C 33.128906 -64.6875 33.628906 -66.828125 34.328125 -68.890625 C 35.035156 -70.960938 36.019531 -72.78125 37.28125 -74.34375 C 38.539062 -75.90625 40.128906 -77.140625 42.046875 -78.046875 C 43.960938 -78.953125 46.234375 -79.40625 48.859375 -79.40625 L 52.640625 -79.40625 L 52.640625 -57.921875 L 47.1875 -57.921875 C 41.4375 -57.921875 37.203125 -57.113281 34.484375 -55.5 C 31.765625 -53.894531 30.40625 -50.820312 30.40625 -46.28125 L 30.40625 0 Z M 9.21875 0 "/></g></g></g><g fill="#000000" fill-opacity="1"><g transform="translate(960.451164, 239.63906)"><g><path d="M 33.734375 0 C 26.472656 0 21.203125 -1.613281 17.921875 -4.84375 C 14.640625 -8.070312 13 -13.210938 13 -20.265625 L 13 -62.921875 L 3.03125 -62.921875 L 3.03125 -79.40625 L 7.859375 -79.40625 C 10.679688 -79.40625 12.597656 -80.007812 13.609375 -81.21875 C 14.617188 -82.425781 15.125 -84.394531 15.125 -87.125 L 15.125 -100.890625 L 34.1875 -100.890625 L 34.1875 -79.40625 L 48.09375 -79.40625 L 48.09375 -62.921875 L 34.1875 -62.921875 L 34.1875 -16.484375 L 46.578125 -16.484375 L 46.578125 0 Z M 33.734375 0 "/></g></g></g></svg>