<svg xmlns="http://www.w3.org/2000/svg" xmlns:xlink="http://www.w3.org/1999/xlink" width="1920" zoomAndPan="magnify" viewBox="0 0 1440 404.99999" height="540" preserveAspectRatio="xMidYMid meet" version="1.0"><defs><g/><clipPath id="id1"><path d="M 40.5 49.171875 L 1400.25 49.171875 L 1400.25 355.921875 L 40.5 355.921875 Z M 40.5 49.171875 " clip-rule="nonzero"/></clipPath></defs><g clip-path="url(#id1)"><path fill="#ff8a00" d="M 1380.300781 355.921875 L 60.449219 355.921875 C 49.457031 355.921875 40.503906 346.964844 40.503906 335.972656 L 40.503906 69.117188 C 40.503906 58.125 49.457031 49.171875 60.449219 49.171875 L 1380.300781 49.171875 C 1391.292969 49.171875 1400.246094 58.125 1400.246094 69.117188 L 1400.246094 335.972656 C 1400.246094 346.964844 1391.292969 355.921875 1380.300781 355.921875 " fill-opacity="1" fill-rule="nonzero"/></g><g fill="#000000" fill-opacity="1"><g transform="translate(327.038998, 264.407091)"><g><path d="M 34.65625 0 L 11.171875 0 L 11.171875 -114.65625 L 60.78125 -114.65625 C 71.070312 -114.65625 78.898438 -111.425781 84.265625 -104.96875 C 89.628906 -98.507812 92.3125 -89.859375 92.3125 -79.015625 C 92.3125 -70.578125 90.722656 -63.457031 87.546875 -57.65625 C 84.378906 -51.851562 79.671875 -47.800781 73.421875 -45.5 L 93.46875 0 L 68 0 L 50.265625 -43.359375 L 34.65625 -43.359375 Z M 57.828125 -62.90625 C 60.992188 -62.90625 63.476562 -63.695312 65.28125 -65.28125 C 67.09375 -66.875 68 -69.644531 68 -73.59375 L 68 -83.453125 C 68 -87.390625 67.09375 -90.148438 65.28125 -91.734375 C 63.476562 -93.328125 60.992188 -94.125 57.828125 -94.125 L 34.65625 -94.125 L 34.65625 -62.90625 Z M 57.828125 -62.90625 "/></g></g></g><g fill="#000000" fill-opacity="1"><g transform="translate(427.239218, 264.407091)"><g><path d="M 44.015625 1.96875 C 32.191406 1.96875 22.75 -1.78125 15.6875 -9.28125 C 8.625 -16.78125 5.09375 -28.03125 5.09375 -43.03125 C 5.09375 -58.363281 8.1875 -69.722656 14.375 -77.109375 C 20.5625 -84.503906 29.675781 -88.203125 41.71875 -88.203125 C 53.769531 -88.203125 62.890625 -84.503906 69.078125 -77.109375 C 75.265625 -69.722656 78.359375 -58.363281 78.359375 -43.03125 L 78.359375 -37.453125 L 29.078125 -37.453125 L 29.078125 -32.03125 C 29.078125 -27.207031 30.554688 -23.34375 33.515625 -20.4375 C 36.472656 -17.539062 40.523438 -16.09375 45.671875 -16.09375 C 49.941406 -16.09375 53.582031 -17.050781 56.59375 -18.96875 C 59.601562 -20.882812 62.367188 -23.539062 64.890625 -26.9375 L 76.546875 -13.3125 C 73.046875 -8.59375 68.582031 -4.863281 63.15625 -2.125 C 57.738281 0.601562 51.359375 1.96875 44.015625 1.96875 Z M 41.71875 -70.96875 C 33.289062 -70.96875 29.078125 -66.035156 29.078125 -56.171875 L 29.078125 -50.921875 L 54.375 -50.921875 L 54.375 -56.171875 C 54.375 -66.035156 50.15625 -70.96875 41.71875 -70.96875 Z M 41.71875 -70.96875 "/></g></g></g><g fill="#000000" fill-opacity="1"><g transform="translate(510.684642, 264.407091)"><g><path d="M 37.125 1.96875 C 23 1.96875 11.71875 -3.125 3.28125 -13.3125 L 16.921875 -26.9375 C 22.171875 -19.488281 29.066406 -15.765625 37.609375 -15.765625 C 44.953125 -15.765625 48.625 -18.722656 48.625 -24.640625 C 48.625 -26.941406 48.046875 -28.722656 46.890625 -29.984375 C 45.742188 -31.242188 43.859375 -32.144531 41.234375 -32.6875 L 32.53125 -34.328125 C 23.21875 -36.078125 16.503906 -39.003906 12.390625 -43.109375 C 8.285156 -47.222656 6.234375 -53.054688 6.234375 -60.609375 C 6.234375 -69.703125 8.914062 -76.570312 14.28125 -81.21875 C 19.65625 -85.875 27.488281 -88.203125 37.78125 -88.203125 C 44.675781 -88.203125 50.671875 -87.132812 55.765625 -85 C 60.859375 -82.863281 65.320312 -79.609375 69.15625 -75.234375 L 56.015625 -61.765625 C 51.085938 -67.566406 45.066406 -70.46875 37.953125 -70.46875 C 31.265625 -70.46875 27.921875 -67.507812 27.921875 -61.59375 C 27.921875 -59.1875 28.519531 -57.378906 29.71875 -56.171875 C 30.925781 -54.972656 32.898438 -54.097656 35.640625 -53.546875 L 44.6875 -51.90625 C 53.769531 -50.257812 60.3125 -47.492188 64.3125 -43.609375 C 68.3125 -39.722656 70.3125 -34.164062 70.3125 -26.9375 C 70.3125 -17.632812 67.40625 -10.488281 61.59375 -5.5 C 55.789062 -0.519531 47.632812 1.96875 37.125 1.96875 Z M 37.125 1.96875 "/></g></g></g><g fill="#000000" fill-opacity="1"><g transform="translate(585.424155, 264.407091)"><g><path d="M 44.015625 1.96875 C 32.191406 1.96875 22.75 -1.78125 15.6875 -9.28125 C 8.625 -16.78125 5.09375 -28.03125 5.09375 -43.03125 C 5.09375 -58.363281 8.1875 -69.722656 14.375 -77.109375 C 20.5625 -84.503906 29.675781 -88.203125 41.71875 -88.203125 C 53.769531 -88.203125 62.890625 -84.503906 69.078125 -77.109375 C 75.265625 -69.722656 78.359375 -58.363281 78.359375 -43.03125 L 78.359375 -37.453125 L 29.078125 -37.453125 L 29.078125 -32.03125 C 29.078125 -27.207031 30.554688 -23.34375 33.515625 -20.4375 C 36.472656 -17.539062 40.523438 -16.09375 45.671875 -16.09375 C 49.941406 -16.09375 53.582031 -17.050781 56.59375 -18.96875 C 59.601562 -20.882812 62.367188 -23.539062 64.890625 -26.9375 L 76.546875 -13.3125 C 73.046875 -8.59375 68.582031 -4.863281 63.15625 -2.125 C 57.738281 0.601562 51.359375 1.96875 44.015625 1.96875 Z M 41.71875 -70.96875 C 33.289062 -70.96875 29.078125 -66.035156 29.078125 -56.171875 L 29.078125 -50.921875 L 54.375 -50.921875 L 54.375 -56.171875 C 54.375 -66.035156 50.15625 -70.96875 41.71875 -70.96875 Z M 41.71875 -70.96875 "/></g></g></g><g fill="#000000" fill-opacity="1"><g transform="translate(668.869566, 264.407091)"><g><path d="M 36.625 0 C 28.738281 0 23.015625 -1.75 19.453125 -5.25 C 15.898438 -8.757812 14.125 -14.347656 14.125 -22.015625 L 14.125 -68.328125 L 3.28125 -68.328125 L 3.28125 -86.234375 L 8.546875 -86.234375 C 11.609375 -86.234375 13.6875 -86.890625 14.78125 -88.203125 C 15.875 -89.523438 16.421875 -91.660156 16.421875 -94.609375 L 16.421875 -109.5625 L 37.125 -109.5625 L 37.125 -86.234375 L 52.234375 -86.234375 L 52.234375 -68.328125 L 37.125 -68.328125 L 37.125 -17.90625 L 50.59375 -17.90625 L 50.59375 0 Z M 36.625 0 "/></g></g></g><g fill="#000000" fill-opacity="1"><g transform="translate(725.047409, 264.407091)"><g/></g></g><g fill="#000000" fill-opacity="1"><g transform="translate(759.871103, 264.407091)"><g><path d="M 11.171875 0 L 11.171875 -114.65625 L 60.78125 -114.65625 C 71.070312 -114.65625 78.898438 -111.367188 84.265625 -104.796875 C 89.628906 -98.234375 92.3125 -89.472656 92.3125 -78.515625 C 92.3125 -67.566406 89.628906 -58.804688 84.265625 -52.234375 C 78.898438 -45.660156 71.070312 -42.375 60.78125 -42.375 L 34.65625 -42.375 L 34.65625 0 Z M 34.65625 -62.90625 L 57.828125 -62.90625 C 60.992188 -62.90625 63.476562 -63.726562 65.28125 -65.375 C 67.09375 -67.019531 68 -69.757812 68 -73.59375 L 68 -83.453125 C 68 -87.285156 67.09375 -90.019531 65.28125 -91.65625 C 63.476562 -93.300781 60.992188 -94.125 57.828125 -94.125 L 34.65625 -94.125 Z M 34.65625 -62.90625 "/></g></g></g><g fill="#000000" fill-opacity="1"><g transform="translate(857.607386, 264.407091)"><g><path d="M 66.859375 0 C 57.878906 0 53.003906 -4.984375 52.234375 -14.953125 L 50.09375 -14.953125 C 49.21875 -9.691406 46.863281 -5.554688 43.03125 -2.546875 C 39.195312 0.460938 34.328125 1.96875 28.421875 1.96875 C 20.640625 1.96875 14.773438 -0.242188 10.828125 -4.671875 C 6.890625 -9.109375 4.921875 -15.269531 4.921875 -23.15625 C 4.921875 -32.570312 7.796875 -39.414062 13.546875 -43.6875 C 19.296875 -47.957031 27.316406 -50.09375 37.609375 -50.09375 L 50.09375 -50.09375 L 50.09375 -56.828125 C 50.09375 -61.328125 49.160156 -64.671875 47.296875 -66.859375 C 45.441406 -69.046875 42.328125 -70.140625 37.953125 -70.140625 C 34.117188 -70.140625 30.910156 -69.179688 28.328125 -67.265625 C 25.753906 -65.347656 23.484375 -62.800781 21.515625 -59.625 L 7.890625 -71.78125 C 11.390625 -76.925781 15.65625 -80.945312 20.6875 -83.84375 C 25.726562 -86.75 32.191406 -88.203125 40.078125 -88.203125 C 51.359375 -88.203125 59.679688 -85.570312 65.046875 -80.3125 C 70.410156 -75.0625 73.09375 -67.234375 73.09375 -56.828125 L 73.09375 -17.90625 L 80.15625 -17.90625 L 80.15625 0 Z M 37.609375 -14.125 C 41.003906 -14.125 43.929688 -15.082031 46.390625 -17 C 48.859375 -18.914062 50.09375 -21.898438 50.09375 -25.953125 L 50.09375 -36.625 L 39.75 -36.625 C 31.863281 -36.625 27.921875 -33.34375 27.921875 -26.78125 L 27.921875 -23.65625 C 27.921875 -20.363281 28.769531 -17.953125 30.46875 -16.421875 C 32.164062 -14.890625 34.546875 -14.125 37.609375 -14.125 Z M 37.609375 -14.125 "/></g></g></g><g fill="#000000" fill-opacity="1"><g transform="translate(942.366924, 264.407091)"><g><path d="M 36.625 0 C 28.738281 0 23.015625 -1.75 19.453125 -5.25 C 15.898438 -8.757812 14.125 -14.347656 14.125 -22.015625 L 14.125 -68.328125 L 3.28125 -68.328125 L 3.28125 -86.234375 L 8.546875 -86.234375 C 11.609375 -86.234375 13.6875 -86.890625 14.78125 -88.203125 C 15.875 -89.523438 16.421875 -91.660156 16.421875 -94.609375 L 16.421875 -109.5625 L 37.125 -109.5625 L 37.125 -86.234375 L 52.234375 -86.234375 L 52.234375 -68.328125 L 37.125 -68.328125 L 37.125 -17.90625 L 50.59375 -17.90625 L 50.59375 0 Z M 36.625 0 "/></g></g></g><g fill="#000000" fill-opacity="1"><g transform="translate(998.544768, 264.407091)"><g><path d="M 10.015625 -121.5625 L 33.015625 -121.5625 L 33.015625 -71.625 L 35.640625 -71.625 C 36.296875 -73.914062 37.195312 -76.046875 38.34375 -78.015625 C 39.5 -79.992188 40.898438 -81.75 42.546875 -83.28125 C 44.191406 -84.8125 46.109375 -86.015625 48.296875 -86.890625 C 50.484375 -87.765625 53.054688 -88.203125 56.015625 -88.203125 C 63.679688 -88.203125 69.539062 -85.601562 73.59375 -80.40625 C 77.644531 -75.207031 79.671875 -67.953125 79.671875 -58.640625 L 79.671875 0 L 56.671875 0 L 56.671875 -54.203125 C 56.671875 -64.390625 53.113281 -69.484375 46 -69.484375 C 42.488281 -69.484375 39.445312 -68.414062 36.875 -66.28125 C 34.300781 -64.144531 33.015625 -61.160156 33.015625 -57.328125 L 33.015625 0 L 10.015625 0 Z M 10.015625 -121.5625 "/></g></g></g></svg>