<svg xmlns="http://www.w3.org/2000/svg" xmlns:xlink="http://www.w3.org/1999/xlink" width="1920" zoomAndPan="magnify" viewBox="0 0 1440 404.99999" height="540" preserveAspectRatio="xMidYMid meet" version="1.0"><defs><g/><clipPath id="388f5baca1"><path d="M 40.5 49.171875 L 1400 49.171875 L 1400 356 L 40.5 356 Z M 40.5 49.171875 " clip-rule="nonzero"/></clipPath><clipPath id="ae837afdd7"><path d="M 1379.960938 355.828125 L 60.441406 355.828125 C 49.453125 355.828125 40.5 346.875 40.5 335.886719 L 40.5 69.113281 C 40.5 58.125 49.453125 49.171875 60.441406 49.171875 L 1379.960938 49.171875 C 1390.949219 49.171875 1399.902344 58.125 1399.902344 69.113281 L 1399.902344 335.886719 C 1399.902344 346.875 1390.949219 355.828125 1379.960938 355.828125 " clip-rule="nonzero"/></clipPath></defs><g clip-path="url(#388f5baca1)"><g clip-path="url(#ae837afdd7)"><path fill="#ff8a00" d="M 40.5 49.171875 L 1399.8125 49.171875 L 1399.8125 356.441406 L 40.5 356.441406 Z M 40.5 49.171875 " fill-opacity="1" fill-rule="nonzero"/></g></g><g fill="#000000" fill-opacity="1"><g transform="translate(455.988822, 263.592538)"><g><path d="M 44.6875 1.96875 C 27.488281 1.96875 14.015625 -4.050781 4.265625 -16.09375 L 19.390625 -31.203125 C 25.953125 -22.773438 34.546875 -18.5625 45.171875 -18.5625 C 56.117188 -18.5625 61.59375 -23.378906 61.59375 -33.015625 C 61.59375 -36.960938 60.609375 -40.03125 58.640625 -42.21875 C 56.671875 -44.40625 53.601562 -45.9375 49.4375 -46.8125 L 38.9375 -48.78125 C 28.3125 -50.757812 20.503906 -54.457031 15.515625 -59.875 C 10.535156 -65.289062 8.046875 -72.820312 8.046875 -82.46875 C 8.046875 -93.632812 11.332031 -102.117188 17.90625 -107.921875 C 24.476562 -113.722656 34.113281 -116.625 46.8125 -116.625 C 63.019531 -116.625 75.34375 -111.367188 83.78125 -100.859375 L 68.65625 -85.75 C 65.8125 -89.25 62.609375 -91.847656 59.046875 -93.546875 C 55.492188 -95.242188 51.304688 -96.09375 46.484375 -96.09375 C 41.234375 -96.09375 37.425781 -95.109375 35.0625 -93.140625 C 32.707031 -91.171875 31.53125 -87.992188 31.53125 -83.609375 C 31.53125 -79.773438 32.429688 -76.875 34.234375 -74.90625 C 36.046875 -72.9375 38.976562 -71.515625 43.03125 -70.640625 L 53.546875 -68.5 C 59.128906 -67.289062 63.921875 -65.835938 67.921875 -64.140625 C 71.921875 -62.441406 75.207031 -60.28125 77.78125 -57.65625 C 80.351562 -55.03125 82.210938 -51.910156 83.359375 -48.296875 C 84.515625 -44.679688 85.09375 -40.460938 85.09375 -35.640625 C 85.09375 -23.378906 81.640625 -14.046875 74.734375 -7.640625 C 67.835938 -1.234375 57.820312 1.96875 44.6875 1.96875 Z M 44.6875 1.96875 "/></g></g></g><g fill="#000000" fill-opacity="1"><g transform="translate(547.318853, 263.592538)"><g><path d="M 55.6875 -14.625 L 53.0625 -14.625 C 52.40625 -12.320312 51.5 -10.179688 50.34375 -8.203125 C 49.195312 -6.234375 47.800781 -4.484375 46.15625 -2.953125 C 44.507812 -1.421875 42.59375 -0.21875 40.40625 0.65625 C 38.21875 1.53125 35.644531 1.96875 32.6875 1.96875 C 25.019531 1.96875 19.160156 -0.628906 15.109375 -5.828125 C 11.054688 -11.035156 9.03125 -18.289062 9.03125 -27.59375 L 9.03125 -86.234375 L 32.03125 -86.234375 L 32.03125 -32.03125 C 32.03125 -21.84375 35.585938 -16.75 42.703125 -16.75 C 46.210938 -16.75 49.253906 -17.816406 51.828125 -19.953125 C 54.398438 -22.085938 55.6875 -25.070312 55.6875 -28.90625 L 55.6875 -86.234375 L 78.6875 -86.234375 L 78.6875 0 L 55.6875 0 Z M 55.6875 -14.625 "/></g></g></g><g fill="#000000" fill-opacity="1"><g transform="translate(636.020681, 263.592538)"><g><path d="M 10.015625 -121.5625 L 33.015625 -121.5625 L 33.015625 -71.953125 L 35.640625 -71.953125 C 36.078125 -74.242188 36.925781 -76.375 38.1875 -78.34375 C 39.445312 -80.320312 40.953125 -82.050781 42.703125 -83.53125 C 44.460938 -85.007812 46.4375 -86.15625 48.625 -86.96875 C 50.8125 -87.789062 53.054688 -88.203125 55.359375 -88.203125 C 65.328125 -88.203125 72.632812 -84.425781 77.28125 -76.875 C 81.9375 -69.320312 84.265625 -58.039062 84.265625 -43.03125 C 84.265625 -28.03125 81.960938 -16.78125 77.359375 -9.28125 C 72.765625 -1.78125 65.429688 1.96875 55.359375 1.96875 C 53.054688 1.96875 50.8125 1.554688 48.625 0.734375 C 46.4375 -0.0859375 44.460938 -1.234375 42.703125 -2.703125 C 40.953125 -4.179688 39.445312 -5.90625 38.1875 -7.875 C 36.925781 -9.851562 36.078125 -11.992188 35.640625 -14.296875 L 33.015625 -14.296875 L 33.015625 0 L 10.015625 0 Z M 46.15625 -16.75 C 50.425781 -16.75 53.847656 -18.085938 56.421875 -20.765625 C 58.992188 -23.453125 60.28125 -27.265625 60.28125 -32.203125 L 60.28125 -54.046875 C 60.28125 -58.972656 58.992188 -62.773438 56.421875 -65.453125 C 53.847656 -68.140625 50.425781 -69.484375 46.15625 -69.484375 C 42 -69.484375 38.769531 -68.523438 36.46875 -66.609375 C 34.164062 -64.691406 33.015625 -61.816406 33.015625 -57.984375 L 33.015625 -28.25 C 33.015625 -24.414062 34.164062 -21.539062 36.46875 -19.625 C 38.769531 -17.707031 42 -16.75 46.15625 -16.75 Z M 46.15625 -16.75 "/></g></g></g><g fill="#000000" fill-opacity="1"><g transform="translate(726.36513, 263.592538)"><g><path d="M 10.015625 0 L 10.015625 -86.234375 L 33.015625 -86.234375 L 33.015625 -71.625 L 35.640625 -71.625 C 36.296875 -73.914062 37.195312 -76.046875 38.34375 -78.015625 C 39.5 -79.992188 40.867188 -81.75 42.453125 -83.28125 C 44.046875 -84.8125 45.9375 -86.015625 48.125 -86.890625 C 50.320312 -87.765625 52.84375 -88.203125 55.6875 -88.203125 C 61.269531 -88.203125 65.703125 -86.695312 68.984375 -83.6875 C 72.273438 -80.675781 74.6875 -76.378906 76.21875 -70.796875 L 78.359375 -70.796875 C 80.210938 -76.816406 83.140625 -81.222656 87.140625 -84.015625 C 91.140625 -86.804688 95.765625 -88.203125 101.015625 -88.203125 C 108.359375 -88.203125 113.972656 -85.570312 117.859375 -80.3125 C 121.742188 -75.0625 123.6875 -67.835938 123.6875 -58.640625 L 123.6875 0 L 100.6875 0 L 100.6875 -54.203125 C 100.6875 -64.390625 97.347656 -69.484375 90.671875 -69.484375 C 87.273438 -69.484375 84.375 -68.414062 81.96875 -66.28125 C 79.5625 -64.144531 78.359375 -61.160156 78.359375 -57.328125 L 78.359375 0 L 55.359375 0 L 55.359375 -54.203125 C 55.359375 -64.390625 52.019531 -69.484375 45.34375 -69.484375 C 41.945312 -69.484375 39.039062 -68.414062 36.625 -66.28125 C 34.21875 -64.144531 33.015625 -61.160156 33.015625 -57.328125 L 33.015625 0 Z M 10.015625 0 "/></g></g></g><g fill="#000000" fill-opacity="1"><g transform="translate(859.089347, 263.592538)"><g><path d="M 21.515625 -96.75 C 16.804688 -96.75 13.382812 -97.757812 11.25 -99.78125 C 9.113281 -101.8125 8.046875 -104.582031 8.046875 -108.09375 L 8.046875 -111.703125 C 8.046875 -115.203125 9.113281 -117.960938 11.25 -119.984375 C 13.382812 -122.015625 16.804688 -123.03125 21.515625 -123.03125 C 26.222656 -123.03125 29.644531 -122.015625 31.78125 -119.984375 C 33.914062 -117.960938 34.984375 -115.203125 34.984375 -111.703125 L 34.984375 -108.09375 C 34.984375 -104.582031 33.914062 -101.8125 31.78125 -99.78125 C 29.644531 -97.757812 26.222656 -96.75 21.515625 -96.75 Z M 10.015625 -86.234375 L 33.015625 -86.234375 L 33.015625 0 L 10.015625 0 Z M 10.015625 -86.234375 "/></g></g></g><g fill="#000000" fill-opacity="1"><g transform="translate(902.126154, 263.592538)"><g><path d="M 36.625 0 C 28.738281 0 23.015625 -1.75 19.453125 -5.25 C 15.898438 -8.757812 14.125 -14.347656 14.125 -22.015625 L 14.125 -68.328125 L 3.28125 -68.328125 L 3.28125 -86.234375 L 8.546875 -86.234375 C 11.609375 -86.234375 13.6875 -86.890625 14.78125 -88.203125 C 15.875 -89.523438 16.421875 -91.660156 16.421875 -94.609375 L 16.421875 -109.5625 L 37.125 -109.5625 L 37.125 -86.234375 L 52.234375 -86.234375 L 52.234375 -68.328125 L 37.125 -68.328125 L 37.125 -17.90625 L 50.59375 -17.90625 L 50.59375 0 Z M 36.625 0 "/></g></g></g></svg>