<svg xmlns="http://www.w3.org/2000/svg" xmlns:xlink="http://www.w3.org/1999/xlink" width="1920" zoomAndPan="magnify" viewBox="0 0 1440 404.99999" height="540" preserveAspectRatio="xMidYMid meet" version="1.0"><defs><g/><clipPath id="id1"><path d="M 106.347656 6.980469 L 1273.347656 6.980469 L 1273.347656 397.730469 L 106.347656 397.730469 Z M 106.347656 6.980469 " clip-rule="nonzero"/></clipPath></defs><path fill="#a6a6a6" d="M 1238.765625 214.570312 C 1238.765625 294.054688 1169.609375 358.566406 1095.84375 358.566406 L 250.429688 358.566406 C 229.679688 358.566406 208.933594 353.957031 190.492188 345.894531 C 214.699219 371.238281 248.121094 386.210938 282.753906 386.210938 L 1130.421875 386.210938 C 1203.035156 386.210938 1262.96875 326.3125 1262.96875 253.738281 L 1262.96875 190.140625 C 1262.96875 156.734375 1250.289062 126.785156 1230.695312 103.746094 C 1236.457031 118.722656 1238.765625 134.847656 1238.765625 150.976562 L 1238.765625 214.570312 " fill-opacity="1" fill-rule="nonzero"/><path fill="#f18a00" d="M 250.429688 347.046875 L 1093.539062 347.046875 C 1166.152344 347.046875 1226.085938 287.144531 1226.085938 214.570312 L 1226.085938 150.976562 C 1226.085938 78.402344 1166.152344 18.5 1093.539062 18.5 L 250.429688 18.5 C 177.816406 18.5 117.882812 78.402344 117.882812 150.976562 L 117.882812 214.570312 C 117.882812 288.296875 177.816406 347.046875 250.429688 347.046875 " fill-opacity="1" fill-rule="nonzero"/><g clip-path="url(#id1)"><path fill="#737373" d="M 1215.710938 74.945312 C 1190.355469 34.628906 1145.40625 6.980469 1093.539062 6.980469 L 250.429688 6.980469 C 170.898438 6.980469 106.355469 71.492188 106.355469 150.976562 L 106.355469 214.570312 C 106.355469 261.800781 129.40625 303.273438 163.984375 329.765625 C 189.339844 370.085938 234.292969 397.730469 283.554688 397.730469 L 1129.269531 397.730469 C 1208.796875 397.730469 1273.339844 333.222656 1273.339844 253.738281 L 1273.339844 190.140625 C 1273.339844 142.914062 1250.289062 101.441406 1215.710938 74.945312 M 117.882812 214.570312 L 117.882812 150.976562 C 117.882812 78.402344 177.816406 18.5 250.429688 18.5 L 1093.539062 18.5 C 1166.152344 18.5 1226.085938 78.402344 1226.085938 150.976562 L 1226.085938 214.570312 C 1226.085938 287.144531 1166.152344 347.046875 1093.539062 347.046875 L 250.429688 347.046875 C 177.816406 347.046875 117.882812 288.296875 117.882812 214.570312 M 1262.96875 253.738281 C 1262.96875 326.3125 1201.882812 386.210938 1129.269531 386.210938 L 283.554688 386.210938 C 249.277344 386.210938 215.851562 371.238281 191.644531 345.894531 C 210.085938 353.957031 229.679688 358.566406 251.582031 358.566406 L 1094.691406 358.566406 C 1174.21875 358.566406 1238.765625 294.054688 1238.765625 214.570312 L 1238.765625 150.976562 C 1238.765625 134.847656 1235.304688 118.722656 1230.695312 103.746094 C 1250.289062 126.785156 1262.96875 156.734375 1262.96875 190.140625 L 1262.96875 253.738281 " fill-opacity="1" fill-rule="nonzero"/></g><g fill="#000000" fill-opacity="1"><g transform="translate(324.097261, 239.639077)"><g><path d="M 31.3125 -105.578125 L 31.3125 -37.0625 C 31.3125 -30.101562 32.492188 -25.082031 34.859375 -22 C 37.234375 -18.925781 41.492188 -17.390625 47.640625 -17.390625 C 53.796875 -17.390625 58.054688 -18.925781 60.421875 -22 C 62.796875 -25.082031 63.984375 -30.101562 63.984375 -37.0625 L 63.984375 -105.578125 L 85.609375 -105.578125 L 85.609375 -39.9375 C 85.609375 -32.46875 84.953125 -26.109375 83.640625 -20.859375 C 82.328125 -15.617188 80.179688 -11.3125 77.203125 -7.9375 C 74.234375 -4.5625 70.328125 -2.09375 65.484375 -0.53125 C 60.648438 1.03125 54.703125 1.8125 47.640625 1.8125 C 40.585938 1.8125 34.640625 1.03125 29.796875 -0.53125 C 24.953125 -2.09375 21.039062 -4.5625 18.0625 -7.9375 C 15.09375 -11.3125 12.953125 -15.617188 11.640625 -20.859375 C 10.335938 -26.109375 9.6875 -32.46875 9.6875 -39.9375 L 9.6875 -105.578125 Z M 31.3125 -105.578125 "/></g></g></g><g fill="#000000" fill-opacity="1"><g transform="translate(419.379882, 239.639077)"><g><path d="M 34.1875 1.8125 C 21.175781 1.8125 10.789062 -2.875 3.03125 -12.25 L 15.578125 -24.8125 C 20.421875 -17.945312 26.773438 -14.515625 34.640625 -14.515625 C 41.390625 -14.515625 44.765625 -17.238281 44.765625 -22.6875 C 44.765625 -24.800781 44.234375 -26.4375 43.171875 -27.59375 C 42.117188 -28.757812 40.382812 -29.59375 37.96875 -30.09375 L 29.953125 -31.609375 C 21.378906 -33.222656 15.203125 -35.921875 11.421875 -39.703125 C 7.640625 -43.484375 5.75 -48.851562 5.75 -55.8125 C 5.75 -64.175781 8.21875 -70.5 13.15625 -74.78125 C 18.09375 -79.070312 25.300781 -81.21875 34.78125 -81.21875 C 41.132812 -81.21875 46.65625 -80.234375 51.34375 -78.265625 C 56.03125 -76.304688 60.140625 -73.304688 63.671875 -69.265625 L 51.578125 -56.875 C 47.035156 -62.21875 41.488281 -64.890625 34.9375 -64.890625 C 28.789062 -64.890625 25.71875 -62.164062 25.71875 -56.71875 C 25.71875 -54.5 26.269531 -52.832031 27.375 -51.71875 C 28.488281 -50.613281 30.304688 -49.8125 32.828125 -49.3125 L 41.140625 -47.796875 C 49.503906 -46.285156 55.523438 -43.738281 59.203125 -40.15625 C 62.890625 -36.570312 64.734375 -31.457031 64.734375 -24.8125 C 64.734375 -16.238281 62.0625 -9.65625 56.71875 -5.0625 C 51.375 -0.476562 43.863281 1.8125 34.1875 1.8125 Z M 34.1875 1.8125 "/></g></g></g><g fill="#000000" fill-opacity="1"><g transform="translate(488.195101, 239.639077)"><g><path d="M 40.53125 1.8125 C 29.644531 1.8125 20.945312 -1.640625 14.4375 -8.546875 C 7.9375 -15.453125 4.6875 -25.8125 4.6875 -39.625 C 4.6875 -53.738281 7.535156 -64.195312 13.234375 -71 C 18.929688 -77.8125 27.328125 -81.21875 38.421875 -81.21875 C 49.515625 -81.21875 57.90625 -77.8125 63.59375 -71 C 69.289062 -64.195312 72.140625 -53.738281 72.140625 -39.625 L 72.140625 -34.484375 L 26.765625 -34.484375 L 26.765625 -29.5 C 26.765625 -25.0625 28.125 -21.503906 30.84375 -18.828125 C 33.570312 -16.160156 37.304688 -14.828125 42.046875 -14.828125 C 45.984375 -14.828125 49.335938 -15.707031 52.109375 -17.46875 C 54.878906 -19.226562 57.425781 -21.675781 59.75 -24.8125 L 70.484375 -12.25 C 67.253906 -7.914062 63.144531 -4.488281 58.15625 -1.96875 C 53.164062 0.550781 47.289062 1.8125 40.53125 1.8125 Z M 38.421875 -65.34375 C 30.648438 -65.34375 26.765625 -60.804688 26.765625 -51.734375 L 26.765625 -46.890625 L 50.0625 -46.890625 L 50.0625 -51.734375 C 50.0625 -60.804688 46.179688 -65.34375 38.421875 -65.34375 Z M 38.421875 -65.34375 "/></g></g></g><g fill="#000000" fill-opacity="1"><g transform="translate(565.026163, 239.639077)"><g/></g></g><g fill="#000000" fill-opacity="1"><g transform="translate(597.089507, 239.639077)"><g><path d="M 49 1.8125 C 42.644531 1.8125 36.867188 0.851562 31.671875 -1.0625 C 26.484375 -2.976562 22.050781 -6.050781 18.375 -10.28125 C 14.695312 -14.519531 11.820312 -20.066406 9.75 -26.921875 C 7.6875 -33.773438 6.65625 -42.144531 6.65625 -52.03125 C 6.65625 -61.914062 7.6875 -70.359375 9.75 -77.359375 C 11.820312 -84.367188 14.695312 -90.09375 18.375 -94.53125 C 22.050781 -98.96875 26.484375 -102.21875 31.671875 -104.28125 C 36.867188 -106.351562 42.644531 -107.390625 49 -107.390625 C 58.476562 -107.390625 65.960938 -105.347656 71.453125 -101.265625 C 76.953125 -97.179688 81.46875 -91.003906 85 -82.734375 L 66.25 -73.046875 C 65.644531 -75.265625 64.960938 -77.332031 64.203125 -79.25 C 63.453125 -81.164062 62.421875 -82.78125 61.109375 -84.09375 C 59.796875 -85.40625 58.15625 -86.4375 56.1875 -87.1875 C 54.21875 -87.945312 51.820312 -88.328125 49 -88.328125 C 42.957031 -88.328125 38.21875 -86.507812 34.78125 -82.875 C 31.351562 -79.25 29.640625 -73.804688 29.640625 -66.546875 L 29.640625 -39.015625 C 29.640625 -31.753906 31.351562 -26.3125 34.78125 -22.6875 C 38.21875 -19.0625 42.957031 -17.25 49 -17.25 C 51.820312 -17.25 54.265625 -17.675781 56.328125 -18.53125 C 58.398438 -19.382812 60.140625 -20.539062 61.546875 -22 C 62.960938 -23.46875 64.125 -25.179688 65.03125 -27.140625 C 65.945312 -29.109375 66.753906 -31.253906 67.453125 -33.578125 L 85.3125 -23.296875 C 83.488281 -19.359375 81.46875 -15.828125 79.25 -12.703125 C 77.03125 -9.578125 74.484375 -6.929688 71.609375 -4.765625 C 68.742188 -2.597656 65.441406 -0.960938 61.703125 0.140625 C 57.972656 1.253906 53.738281 1.8125 49 1.8125 Z M 49 1.8125 "/></g></g></g><g fill="#000000" fill-opacity="1"><g transform="translate(686.171182, 239.639077)"><g><path d="M 61.5625 0 C 53.289062 0 48.800781 -4.585938 48.09375 -13.765625 L 46.125 -13.765625 C 45.320312 -8.921875 43.15625 -5.113281 39.625 -2.34375 C 36.09375 0.425781 31.609375 1.8125 26.171875 1.8125 C 19.003906 1.8125 13.601562 -0.226562 9.96875 -4.3125 C 6.34375 -8.394531 4.53125 -14.066406 4.53125 -21.328125 C 4.53125 -29.992188 7.175781 -36.289062 12.46875 -40.21875 C 17.769531 -44.15625 25.160156 -46.125 34.640625 -46.125 L 46.125 -46.125 L 46.125 -52.328125 C 46.125 -56.460938 45.265625 -59.535156 43.546875 -61.546875 C 41.835938 -63.566406 38.96875 -64.578125 34.9375 -64.578125 C 31.40625 -64.578125 28.453125 -63.695312 26.078125 -61.9375 C 23.710938 -60.175781 21.625 -57.832031 19.8125 -54.90625 L 7.265625 -66.09375 C 10.484375 -70.832031 14.410156 -74.535156 19.046875 -77.203125 C 23.691406 -79.878906 29.644531 -81.21875 36.90625 -81.21875 C 47.289062 -81.21875 54.953125 -78.796875 59.890625 -73.953125 C 64.835938 -69.117188 67.3125 -61.910156 67.3125 -52.328125 L 67.3125 -16.484375 L 73.8125 -16.484375 L 73.8125 0 Z M 34.640625 -13 C 37.765625 -13 40.457031 -13.878906 42.71875 -15.640625 C 44.988281 -17.410156 46.125 -20.160156 46.125 -23.890625 L 46.125 -33.734375 L 36.609375 -33.734375 C 29.347656 -33.734375 25.71875 -30.707031 25.71875 -24.65625 L 25.71875 -21.78125 C 25.71875 -18.757812 26.5 -16.539062 28.0625 -15.125 C 29.625 -13.707031 31.816406 -13 34.640625 -13 Z M 34.640625 -13 "/></g></g></g><g fill="#000000" fill-opacity="1"><g transform="translate(764.212193, 239.639077)"><g><path d="M 34.1875 1.8125 C 21.175781 1.8125 10.789062 -2.875 3.03125 -12.25 L 15.578125 -24.8125 C 20.421875 -17.945312 26.773438 -14.515625 34.640625 -14.515625 C 41.390625 -14.515625 44.765625 -17.238281 44.765625 -22.6875 C 44.765625 -24.800781 44.234375 -26.4375 43.171875 -27.59375 C 42.117188 -28.757812 40.382812 -29.59375 37.96875 -30.09375 L 29.953125 -31.609375 C 21.378906 -33.222656 15.203125 -35.921875 11.421875 -39.703125 C 7.640625 -43.484375 5.75 -48.851562 5.75 -55.8125 C 5.75 -64.175781 8.21875 -70.5 13.15625 -74.78125 C 18.09375 -79.070312 25.300781 -81.21875 34.78125 -81.21875 C 41.132812 -81.21875 46.65625 -80.234375 51.34375 -78.265625 C 56.03125 -76.304688 60.140625 -73.304688 63.671875 -69.265625 L 51.578125 -56.875 C 47.035156 -62.21875 41.488281 -64.890625 34.9375 -64.890625 C 28.789062 -64.890625 25.71875 -62.164062 25.71875 -56.71875 C 25.71875 -54.5 26.269531 -52.832031 27.375 -51.71875 C 28.488281 -50.613281 30.304688 -49.8125 32.828125 -49.3125 L 41.140625 -47.796875 C 49.503906 -46.285156 55.523438 -43.738281 59.203125 -40.15625 C 62.890625 -36.570312 64.734375 -31.457031 64.734375 -24.8125 C 64.734375 -16.238281 62.0625 -9.65625 56.71875 -5.0625 C 51.375 -0.476562 43.863281 1.8125 34.1875 1.8125 Z M 34.1875 1.8125 "/></g></g></g><g fill="#000000" fill-opacity="1"><g transform="translate(833.027435, 239.639077)"><g><path d="M 40.53125 1.8125 C 29.644531 1.8125 20.945312 -1.640625 14.4375 -8.546875 C 7.9375 -15.453125 4.6875 -25.8125 4.6875 -39.625 C 4.6875 -53.738281 7.535156 -64.195312 13.234375 -71 C 18.929688 -77.8125 27.328125 -81.21875 38.421875 -81.21875 C 49.515625 -81.21875 57.90625 -77.8125 63.59375 -71 C 69.289062 -64.195312 72.140625 -53.738281 72.140625 -39.625 L 72.140625 -34.484375 L 26.765625 -34.484375 L 26.765625 -29.5 C 26.765625 -25.0625 28.125 -21.503906 30.84375 -18.828125 C 33.570312 -16.160156 37.304688 -14.828125 42.046875 -14.828125 C 45.984375 -14.828125 49.335938 -15.707031 52.109375 -17.46875 C 54.878906 -19.226562 57.425781 -21.675781 59.75 -24.8125 L 70.484375 -12.25 C 67.253906 -7.914062 63.144531 -4.488281 58.15625 -1.96875 C 53.164062 0.550781 47.289062 1.8125 40.53125 1.8125 Z M 38.421875 -65.34375 C 30.648438 -65.34375 26.765625 -60.804688 26.765625 -51.734375 L 26.765625 -46.890625 L 50.0625 -46.890625 L 50.0625 -51.734375 C 50.0625 -60.804688 46.179688 -65.34375 38.421875 -65.34375 Z M 38.421875 -65.34375 "/></g></g></g><g fill="#000000" fill-opacity="1"><g transform="translate(909.858484, 239.639077)"><g><path d="M 34.1875 1.8125 C 21.175781 1.8125 10.789062 -2.875 3.03125 -12.25 L 15.578125 -24.8125 C 20.421875 -17.945312 26.773438 -14.515625 34.640625 -14.515625 C 41.390625 -14.515625 44.765625 -17.238281 44.765625 -22.6875 C 44.765625 -24.800781 44.234375 -26.4375 43.171875 -27.59375 C 42.117188 -28.757812 40.382812 -29.59375 37.96875 -30.09375 L 29.953125 -31.609375 C 21.378906 -33.222656 15.203125 -35.921875 11.421875 -39.703125 C 7.640625 -43.484375 5.75 -48.851562 5.75 -55.8125 C 5.75 -64.175781 8.21875 -70.5 13.15625 -74.78125 C 18.09375 -79.070312 25.300781 -81.21875 34.78125 -81.21875 C 41.132812 -81.21875 46.65625 -80.234375 51.34375 -78.265625 C 56.03125 -76.304688 60.140625 -73.304688 63.671875 -69.265625 L 51.578125 -56.875 C 47.035156 -62.21875 41.488281 -64.890625 34.9375 -64.890625 C 28.789062 -64.890625 25.71875 -62.164062 25.71875 -56.71875 C 25.71875 -54.5 26.269531 -52.832031 27.375 -51.71875 C 28.488281 -50.613281 30.304688 -49.8125 32.828125 -49.3125 L 41.140625 -47.796875 C 49.503906 -46.285156 55.523438 -43.738281 59.203125 -40.15625 C 62.890625 -36.570312 64.734375 -31.457031 64.734375 -24.8125 C 64.734375 -16.238281 62.0625 -9.65625 56.71875 -5.0625 C 51.375 -0.476562 43.863281 1.8125 34.1875 1.8125 Z M 34.1875 1.8125 "/></g></g></g></svg>