<svg xmlns="http://www.w3.org/2000/svg" xmlns:xlink="http://www.w3.org/1999/xlink" width="1920" zoomAndPan="magnify" viewBox="0 0 1440 404.99999" height="540" preserveAspectRatio="xMidYMid meet" version="1.0"><defs><g/><clipPath id="id1"><path d="M 106.347656 6.980469 L 1273.347656 6.980469 L 1273.347656 397.730469 L 106.347656 397.730469 Z M 106.347656 6.980469 " clip-rule="nonzero"/></clipPath></defs><path fill="#a6a6a6" d="M 1238.765625 214.570312 C 1238.765625 294.054688 1169.609375 358.566406 1095.84375 358.566406 L 250.429688 358.566406 C 229.679688 358.566406 208.933594 353.957031 190.492188 345.894531 C 214.699219 371.238281 248.121094 386.210938 282.753906 386.210938 L 1130.421875 386.210938 C 1203.035156 386.210938 1262.96875 326.3125 1262.96875 253.738281 L 1262.96875 190.140625 C 1262.96875 156.734375 1250.289062 126.785156 1230.695312 103.746094 C 1236.457031 118.722656 1238.765625 134.847656 1238.765625 150.976562 L 1238.765625 214.570312 " fill-opacity="1" fill-rule="nonzero"/><path fill="#f18a00" d="M 250.429688 347.046875 L 1093.539062 347.046875 C 1166.152344 347.046875 1226.085938 287.144531 1226.085938 214.570312 L 1226.085938 150.976562 C 1226.085938 78.402344 1166.152344 18.5 1093.539062 18.5 L 250.429688 18.5 C 177.816406 18.5 117.882812 78.402344 117.882812 150.976562 L 117.882812 214.570312 C 117.882812 288.296875 177.816406 347.046875 250.429688 347.046875 " fill-opacity="1" fill-rule="nonzero"/><g clip-path="url(#id1)"><path fill="#737373" d="M 1215.710938 74.945312 C 1190.355469 34.628906 1145.40625 6.980469 1093.539062 6.980469 L 250.429688 6.980469 C 170.898438 6.980469 106.355469 71.492188 106.355469 150.976562 L 106.355469 214.570312 C 106.355469 261.800781 129.40625 303.273438 163.984375 329.765625 C 189.339844 370.085938 234.292969 397.730469 283.554688 397.730469 L 1129.269531 397.730469 C 1208.796875 397.730469 1273.339844 333.222656 1273.339844 253.738281 L 1273.339844 190.140625 C 1273.339844 142.914062 1250.289062 101.441406 1215.710938 74.945312 M 117.882812 214.570312 L 117.882812 150.976562 C 117.882812 78.402344 177.816406 18.5 250.429688 18.5 L 1093.539062 18.5 C 1166.152344 18.5 1226.085938 78.402344 1226.085938 150.976562 L 1226.085938 214.570312 C 1226.085938 287.144531 1166.152344 347.046875 1093.539062 347.046875 L 250.429688 347.046875 C 177.816406 347.046875 117.882812 288.296875 117.882812 214.570312 M 1262.96875 253.738281 C 1262.96875 326.3125 1201.882812 386.210938 1129.269531 386.210938 L 283.554688 386.210938 C 249.277344 386.210938 215.851562 371.238281 191.644531 345.894531 C 210.085938 353.957031 229.679688 358.566406 251.582031 358.566406 L 1094.691406 358.566406 C 1174.21875 358.566406 1238.765625 294.054688 1238.765625 214.570312 L 1238.765625 150.976562 C 1238.765625 134.847656 1235.304688 118.722656 1230.695312 103.746094 C 1250.289062 126.785156 1262.96875 156.734375 1262.96875 190.140625 L 1262.96875 253.738281 " fill-opacity="1" fill-rule="nonzero"/></g><g fill="#000000" fill-opacity="1"><g transform="translate(463.989841, 239.63906)"><g><path d="M 67 -44.015625 L 31.90625 -44.015625 L 31.90625 0 L 10.28125 0 L 10.28125 -105.578125 L 31.90625 -105.578125 L 31.90625 -62.765625 L 67 -62.765625 L 67 -105.578125 L 88.625 -105.578125 L 88.625 0 L 67 0 Z M 67 -44.015625 "/></g></g></g><g fill="#000000" fill-opacity="1"><g transform="translate(562.902276, 239.63906)"><g><path d="M 38.421875 1.8125 C 27.328125 1.8125 18.929688 -1.5625 13.234375 -8.3125 C 7.535156 -15.070312 4.6875 -25.507812 4.6875 -39.625 C 4.6875 -53.738281 7.535156 -64.195312 13.234375 -71 C 18.929688 -77.8125 27.328125 -81.21875 38.421875 -81.21875 C 49.515625 -81.21875 57.90625 -77.8125 63.59375 -71 C 69.289062 -64.195312 72.140625 -53.738281 72.140625 -39.625 C 72.140625 -25.507812 69.289062 -15.070312 63.59375 -8.3125 C 57.90625 -1.5625 49.515625 1.8125 38.421875 1.8125 Z M 38.421875 -14.96875 C 46.179688 -14.96875 50.0625 -19.507812 50.0625 -28.59375 L 50.0625 -50.8125 C 50.0625 -59.894531 46.179688 -64.4375 38.421875 -64.4375 C 30.648438 -64.4375 26.765625 -59.894531 26.765625 -50.8125 L 26.765625 -28.59375 C 26.765625 -19.507812 30.648438 -14.96875 38.421875 -14.96875 Z M 38.421875 -14.96875 "/></g></g></g><g fill="#000000" fill-opacity="1"><g transform="translate(639.733337, 239.63906)"><g><path d="M 9.21875 0 L 9.21875 -79.40625 L 30.40625 -79.40625 L 30.40625 -65.9375 L 32.828125 -65.9375 C 33.429688 -68.0625 34.257812 -70.03125 35.3125 -71.84375 C 36.375 -73.65625 37.632812 -75.265625 39.09375 -76.671875 C 40.5625 -78.085938 42.300781 -79.195312 44.3125 -80 C 46.332031 -80.8125 48.65625 -81.21875 51.28125 -81.21875 C 56.414062 -81.21875 60.492188 -79.832031 63.515625 -77.0625 C 66.546875 -74.289062 68.769531 -70.332031 70.1875 -65.1875 L 72.140625 -65.1875 C 73.859375 -70.726562 76.554688 -74.785156 80.234375 -77.359375 C 83.921875 -79.929688 88.179688 -81.21875 93.015625 -81.21875 C 99.773438 -81.21875 104.941406 -78.796875 108.515625 -73.953125 C 112.097656 -69.117188 113.890625 -62.46875 113.890625 -54 L 113.890625 0 L 92.71875 0 L 92.71875 -49.90625 C 92.71875 -59.289062 89.640625 -63.984375 83.484375 -63.984375 C 80.359375 -63.984375 77.6875 -63 75.46875 -61.03125 C 73.25 -59.0625 72.140625 -56.3125 72.140625 -52.78125 L 72.140625 0 L 50.96875 0 L 50.96875 -49.90625 C 50.96875 -59.289062 47.894531 -63.984375 41.75 -63.984375 C 38.625 -63.984375 35.953125 -63 33.734375 -61.03125 C 31.515625 -59.0625 30.40625 -56.3125 30.40625 -52.78125 L 30.40625 0 Z M 9.21875 0 "/></g></g></g><g fill="#000000" fill-opacity="1"><g transform="translate(761.937072, 239.63906)"><g><path d="M 40.53125 1.8125 C 29.644531 1.8125 20.945312 -1.640625 14.4375 -8.546875 C 7.9375 -15.453125 4.6875 -25.8125 4.6875 -39.625 C 4.6875 -53.738281 7.535156 -64.195312 13.234375 -71 C 18.929688 -77.8125 27.328125 -81.21875 38.421875 -81.21875 C 49.515625 -81.21875 57.90625 -77.8125 63.59375 -71 C 69.289062 -64.195312 72.140625 -53.738281 72.140625 -39.625 L 72.140625 -34.484375 L 26.765625 -34.484375 L 26.765625 -29.5 C 26.765625 -25.0625 28.125 -21.503906 30.84375 -18.828125 C 33.570312 -16.160156 37.304688 -14.828125 42.046875 -14.828125 C 45.984375 -14.828125 49.335938 -15.707031 52.109375 -17.46875 C 54.878906 -19.226562 57.425781 -21.675781 59.75 -24.8125 L 70.484375 -12.25 C 67.253906 -7.914062 63.144531 -4.488281 58.15625 -1.96875 C 53.164062 0.550781 47.289062 1.8125 40.53125 1.8125 Z M 38.421875 -65.34375 C 30.648438 -65.34375 26.765625 -60.804688 26.765625 -51.734375 L 26.765625 -46.890625 L 50.0625 -46.890625 L 50.0625 -51.734375 C 50.0625 -60.804688 46.179688 -65.34375 38.421875 -65.34375 Z M 38.421875 -65.34375 "/></g></g></g></svg>